<svg width="24" height="24" viewBox="0 0 24 24" fill="none" xmlns="http://www.w3.org/2000/svg">
<path d="M11.9999 2.16221C15.2041 2.16221 15.5836 2.17445 16.849 2.23218C18.019 2.28558 18.6544 2.48102 19.0772 2.64536C19.5985 2.83773 20.0699 3.14447 20.457 3.54302C20.8556 3.9301 21.1623 4.40158 21.3547 4.92279C21.519 5.34564 21.7145 5.98103 21.7678 7.15102C21.8256 8.41642 21.8378 8.79592 21.8378 12.0002C21.8378 15.2044 21.8256 15.5838 21.7678 16.8493C21.7144 18.0193 21.519 18.6546 21.3547 19.0775C21.155 19.5951 20.8493 20.0651 20.457 20.4573C20.0648 20.8496 19.5948 21.1553 19.0772 21.355C18.6544 21.5193 18.019 21.7148 16.849 21.7682C15.5839 21.8259 15.2044 21.8381 11.9999 21.8381C8.79547 21.8381 8.41611 21.8259 7.15082 21.7682C5.98084 21.7148 5.3455 21.5193 4.92261 21.355C4.4014 21.1626 3.92992 20.8559 3.54285 20.4573C3.1443 20.0702 2.83757 19.5988 2.64519 19.0775C2.48086 18.6547 2.28537 18.0193 2.23202 16.8493C2.17429 15.584 2.16205 15.2044 2.16205 12.0002C2.16205 8.79592 2.17429 8.41651 2.23202 7.15102C2.28542 5.98103 2.48086 5.34569 2.64519 4.92279C2.83759 4.40155 3.14435 3.93005 3.54295 3.54297C3.93002 3.14442 4.40149 2.83768 4.9227 2.64531C5.34555 2.48097 5.98093 2.28548 7.15091 2.23213C8.4163 2.1744 8.7958 2.16216 12 2.16216L11.9999 2.16221ZM12 0C8.74102 0 8.33223 0.0138139 7.0525 0.0722132C5.77521 0.130517 4.90294 0.333343 4.13965 0.630008C3.33896 0.931324 2.61363 1.40367 2.01424 2.01411C1.40367 2.61347 0.93119 3.33881 0.629765 4.13954C0.333341 4.90288 0.130516 5.77516 0.0724508 7.05246C0.0138138 8.3322 0 8.741 0 12C0 15.2591 0.0138138 15.6678 0.0724508 16.9476C0.130754 18.2249 0.333579 19.0972 0.630241 19.8605C0.931556 20.6612 1.4039 21.3865 2.01433 21.9859C2.61372 22.5963 3.33905 23.0687 4.13975 23.37C4.90308 23.6667 5.77535 23.8695 7.0526 23.9278C8.33251 23.9862 8.74116 24 12.0001 24C15.2591 24 15.6679 23.9862 16.9476 23.9278C18.2249 23.8695 19.0972 23.6667 19.8605 23.37C20.6576 23.0617 21.3816 22.5903 21.9859 21.9859C22.5903 21.3815 23.0617 20.6576 23.37 19.8605C23.6667 19.0971 23.8695 18.2248 23.9278 16.9476C23.9862 15.6677 24 15.259 24 12C24 8.74104 23.9862 8.3322 23.9278 7.05246C23.8695 5.77516 23.6667 4.90288 23.37 4.13959C23.0687 3.33889 22.5963 2.61355 21.9859 2.01416C21.3865 1.4036 20.6611 0.93115 19.8603 0.62977C19.097 0.333343 18.2247 0.130517 16.9474 0.0724514C15.6677 0.0138139 15.2589 0 11.9999 0H12Z" fill="#BFBDC1"/>
<path d="M11.9999 5.83789C10.7811 5.83789 9.58976 6.1993 8.57641 6.87641C7.56305 7.55351 6.77323 8.51592 6.30684 9.64191C5.84044 10.7679 5.71841 12.0069 5.95617 13.2023C6.19394 14.3976 6.78083 15.4956 7.64262 16.3574C8.50441 17.2192 9.6024 17.8061 10.7977 18.0439C11.9931 18.2816 13.2321 18.1596 14.358 17.6932C15.484 17.2268 16.4464 16.437 17.1235 15.4236C17.8006 14.4102 18.162 13.2188 18.162 12.0001C18.162 10.3658 17.5128 8.79839 16.3572 7.64275C15.2016 6.48712 13.6342 5.83789 11.9999 5.83789ZM11.9999 16C11.2088 16 10.4354 15.7654 9.77767 15.3259C9.11989 14.8864 8.60721 14.2617 8.30447 13.5308C8.00173 12.7999 7.92253 11.9956 8.07687 11.2197C8.23122 10.4438 8.61218 9.73105 9.17158 9.17165C9.73099 8.61224 10.4437 8.23129 11.2196 8.07695C11.9955 7.92262 12.7998 8.00183 13.5307 8.30458C14.2616 8.60733 14.8863 9.12002 15.3258 9.77781C15.7653 10.4356 15.9999 11.209 15.9999 12.0001C15.9999 13.0609 15.5785 14.0783 14.8283 14.8285C14.0782 15.5786 13.0608 16 11.9999 16Z" fill="#BFBDC1"/>
<path d="M18.4055 7.03425C19.2008 7.03425 19.8455 6.38955 19.8455 5.59428C19.8455 4.799 19.2008 4.1543 18.4055 4.1543C17.6103 4.1543 16.9656 4.799 16.9656 5.59428C16.9656 6.38955 17.6103 7.03425 18.4055 7.03425Z" fill="#BFBDC1"/>
</svg>
