<svg width="92" height="93" viewBox="0 0 92 93" fill="none" xmlns="http://www.w3.org/2000/svg">
<path d="M45.8356 4.47321L45.1693 5.14046L44.5024 4.47321C41.7518 1.71945 37.2769 1.7183 34.5275 4.47321C33.1948 5.80713 32.4611 7.58107 32.4611 9.46747C32.4611 11.3544 33.1948 13.1278 34.5275 14.4623L44.3187 24.2669C44.4742 24.4231 44.6729 24.5264 44.8865 24.5742C44.9821 24.5996 45.0472 24.595 45.186 24.6129C45.4987 24.6129 45.7988 24.4883 46.0199 24.2669L55.8111 14.4623C58.5611 11.708 58.5611 7.22698 55.8111 4.47321C53.0605 1.71945 48.5862 1.71945 45.8356 4.47321ZM54.1433 12.7922L45.1693 21.7784L36.1953 12.7922C35.3084 11.904 34.82 10.7235 34.82 9.46747C34.82 8.21199 35.3084 7.03147 36.1953 6.14335C37.1105 5.22697 38.3124 4.76906 39.5149 4.76906C40.7169 4.76906 41.9194 5.22697 42.8345 6.14335L44.3354 7.64566C44.7961 8.10703 45.5425 8.10703 46.0032 7.64566L47.5035 6.14335C49.3344 4.31116 52.3124 4.31001 54.1433 6.14335C55.9735 7.97611 55.9735 10.9588 54.1433 12.7922ZM27.6861 37.7029V91.0965C27.6861 91.7487 27.158 92.2776 26.5067 92.2776C25.8553 92.2776 25.3272 91.7487 25.3272 91.0965V37.7029C25.3272 37.0507 25.8553 36.5218 26.5067 36.5218C27.158 36.5218 27.6861 37.0507 27.6861 37.7029ZM18.3551 57.7255V91.0965C18.3551 91.7487 17.827 92.2776 17.1756 92.2776C16.5243 92.2776 15.9961 91.7487 15.9961 91.0965V57.7255C15.9961 57.0732 16.5243 56.5444 17.1756 56.5444C17.827 56.5444 18.3551 57.0732 18.3551 57.7255ZM34.4929 32.4278C32.6575 29.9768 29.7347 28.5131 26.6748 28.5131H5.76264C2.5853 28.5131 0 31.102 0 34.2836V58.3795C0 61.4135 2.35853 63.8812 5.33186 64.1064V91.0965C5.33186 91.7487 5.85997 92.2776 6.51134 92.2776C7.1627 92.2776 7.69082 91.7487 7.69082 91.0965V37.7029C7.69082 37.0507 7.1627 36.5218 6.51134 36.5218C5.85997 36.5218 5.33186 37.0507 5.33186 37.7029V61.7442C3.65982 61.5294 2.35896 60.1113 2.35896 58.3795V34.2836C2.35896 32.4042 3.88572 30.8753 5.76264 30.8753H11.4902L15.4675 43.4821C15.6229 43.9746 16.0791 44.3073 16.5916 44.3073C16.6055 44.3073 16.6193 44.3073 16.6331 44.3068C17.1624 44.2883 17.6151 43.9186 17.7389 43.4031L20.7528 30.8753H26.6748C28.9964 30.8753 31.2136 31.9855 32.6062 33.8453L46.1363 51.9094C46.5434 52.4533 46.6218 53.1753 46.3407 53.7947C46.0666 54.3985 45.5097 54.8016 44.8508 54.8737C44.1926 54.9452 43.5619 54.6713 43.1645 54.1407L34.2067 42.1804C33.8162 41.6603 33.079 41.5518 32.5555 41.9446C32.0343 42.3356 31.9289 43.0761 32.32 43.598L41.2778 55.5583C42.1803 56.7624 43.6103 57.3847 45.1065 57.222C46.6016 57.0588 47.8658 56.143 48.4878 54.7722C49.1264 53.3668 48.9485 51.7266 48.023 50.4919L34.4929 32.4278ZM16.439 38.7202L13.9642 30.8753H18.3263L16.439 38.7202ZM86.2667 63.8869C88.6405 63.1546 90.3386 60.9374 90.3386 58.3795V34.2836C90.3386 31.102 87.7533 28.5131 84.5754 28.5131H63.6638C60.6039 28.5131 57.6811 29.9768 55.8457 32.4278L47.1136 44.0853C46.7226 44.6072 46.828 45.3477 47.3492 45.7387C47.8727 46.1326 48.611 46.0242 49.0003 45.5028L57.7324 33.8453C59.125 31.9855 61.3423 30.8753 63.6638 30.8753H84.5754C86.4523 30.8753 87.9797 32.4042 87.9797 34.2836V58.3795C87.9797 59.8175 87.0695 61.069 85.7742 61.5599L82.7048 47.0594L84.5823 39.2098C84.5936 39.1625 84.5819 39.1172 84.5873 39.0701C84.5928 39.0236 84.6146 38.9828 84.6146 38.9347C84.6146 38.8783 84.5995 38.826 84.5979 38.77C84.5959 38.7555 84.5961 38.7411 84.5935 38.7267C84.4813 35.5613 81.8919 33.016 78.7039 33.016C76.6812 33.016 74.8954 34.0411 73.8293 35.5972C72.7633 34.0411 70.9775 33.016 68.9548 33.016C65.7662 33.016 63.1768 35.5613 63.0645 38.7267C63.062 38.7411 63.0622 38.7555 63.0602 38.77C63.0586 38.826 63.0435 38.8783 63.0435 38.9347C63.0435 38.9828 63.0653 39.0236 63.0708 39.0701C63.0762 39.1172 63.0645 39.1625 63.0758 39.2098L64.9538 47.0599L55.6844 90.8514C55.5497 91.4898 55.9568 92.1167 56.5938 92.2516C56.6767 92.2695 56.7585 92.2776 56.8397 92.2776C57.3851 92.2776 57.8747 91.897 57.9921 91.3416L67.1189 48.2243H80.5398L89.6665 91.3416C89.784 91.897 90.2735 92.2776 90.8189 92.2776C90.9001 92.2776 90.9825 92.2695 91.0648 92.2516C91.7018 92.1167 92.109 91.4898 91.9742 90.8514L86.2667 63.8869ZM80.5655 45.8621H67.0931L65.4124 38.8361C65.466 36.9213 67.0298 35.3782 68.9548 35.3782C70.9129 35.3782 72.5064 36.9734 72.5064 38.9347C72.5064 39.587 73.0346 40.1158 73.6859 40.1158C73.7368 40.1158 73.7802 40.0931 73.8293 40.0869C73.8785 40.0931 73.9218 40.1158 73.9727 40.1158C74.6241 40.1158 75.1522 39.587 75.1522 38.9347C75.1522 36.9734 76.7458 35.3782 78.7039 35.3782C80.6283 35.3782 82.1921 36.9213 82.2457 38.8361L80.5655 45.8621ZM59.9508 40.128L52.2381 50.4256C52.0066 50.7347 51.6524 50.8979 51.2936 50.8979C51.0477 50.8979 50.7995 50.8212 50.587 50.6615C50.0658 50.2705 49.9604 49.53 50.3514 49.008L58.0641 38.7104C58.4552 38.1891 59.1935 38.0818 59.7153 38.4745C60.2365 38.8655 60.3419 39.606 59.9508 40.128ZM81.6515 2.16063C76.7009 -0.536616 70.7914 -0.536616 65.8408 2.16063C65.2856 2.4634 65.0673 3.15025 65.3455 3.71831L68.0857 9.30974C67.9723 9.42062 67.8555 9.52767 67.7488 9.64625C66.3228 11.2293 65.6311 13.3533 65.85 15.4738L66.2543 19.3891C66.6528 23.2461 69.8739 26.155 73.7464 26.155C77.6195 26.155 80.84 23.2461 81.2379 19.3891L81.6428 15.4738C81.8617 13.3533 81.17 11.2293 79.744 9.64625C79.6373 9.52767 79.5206 9.42069 79.4071 9.30974L82.1468 3.71831C82.4249 3.15025 82.2066 2.4634 81.6515 2.16063ZM68.1963 15.2305C68.046 13.7743 68.5211 12.3158 69.5007 11.2282C70.4798 10.1411 71.8798 9.51764 73.3415 9.51764H74.1507C75.4795 9.51764 76.7404 10.0535 77.6977 10.9637C76.2087 12.3832 72.5902 15.3887 68.2583 15.8305L68.1963 15.2305ZM79.2965 15.2305L78.8917 19.1457C78.6181 21.7951 76.406 23.7928 73.7464 23.7928C71.0868 23.7928 68.8747 21.7951 68.6006 19.1457L68.5011 18.1831C73.2628 17.6982 77.1505 14.6865 79.0143 12.9701C79.2687 13.6884 79.3763 14.4575 79.2965 15.2305ZM77.4547 7.93113C76.4347 7.43199 75.3081 7.15546 74.1507 7.15546H73.3415C72.1844 7.15546 71.0579 7.43199 70.038 7.93113L67.9809 3.73446C71.6604 2.08912 75.833 2.09027 79.5113 3.73446L77.4547 7.93113ZM22.371 9.42134C22.3659 9.41643 22.359 9.41528 22.3538 9.41052C20.9435 7.97828 19.014 7.15546 16.9965 7.15546H16.1879C14.0588 7.15546 12.02 8.0632 10.5946 9.64625C9.16863 11.2293 8.47695 13.3533 8.6958 15.4738L9.10067 19.3891C9.49863 23.2461 12.7192 26.155 16.5922 26.155C20.4647 26.155 23.6858 23.2461 24.0843 19.3891L24.4886 15.4738C24.7075 13.3533 24.0158 11.2293 22.5898 9.64625C22.5251 9.57438 22.4528 9.5113 22.3856 9.44224C22.3793 9.43604 22.3774 9.42746 22.371 9.42134ZM16.1879 9.51764H16.9965C17.9822 9.51764 18.928 9.82157 19.7475 10.3394C18.7385 11.1432 17.7177 11.5606 16.7011 11.5742C15.5949 11.5569 14.5276 11.1522 13.4627 10.3245C14.2765 9.81681 15.2123 9.51764 16.1879 9.51764ZM22.1423 15.2305L21.7381 19.1457C21.4639 21.7951 19.2518 23.7928 16.5922 23.7928C13.9326 23.7928 11.7205 21.7951 11.447 19.1457L11.0421 15.2305C10.9249 14.0952 11.198 12.9648 11.7836 12.0037C13.3314 13.2824 14.9619 13.9369 16.6458 13.9364C16.674 13.9364 16.7034 13.9364 16.7322 13.9358C18.36 13.9147 19.9289 13.2641 21.413 12.0206C21.991 12.9778 22.2588 14.1022 22.1423 15.2305Z" fill="black"/>
</svg>
