<svg width="64" height="64" viewBox="0 0 64 64" fill="none" xmlns="http://www.w3.org/2000/svg">
<path d="M58.992 64H5.008C2.248 64 0 61.754 0 58.992V9.01C0 6.248 2.248 4 5.01 4H58.99C61.752 4 64 6.248 64 9.01V58.992C64 61.754 61.754 64 58.992 64ZM5.01 8C4.454 8 4 8.454 4 9.01V58.992C4 59.548 4.452 60 5.008 60H58.992C59.548 60 60 59.548 60 58.992V9.01C60 8.454 59.546 8 58.99 8H5.01ZM62 20H2C0.896 20 0 19.104 0 18C0 16.896 0.896 16 2 16H62C63.106 16 64 16.896 64 18C64 19.104 63.106 20 62 20ZM12 12C10.896 12 10 11.104 10 10V2C10 0.896 10.896 0 12 0C13.104 0 14 0.896 14 2V10C14 11.104 13.104 12 12 12ZM52 12C50.894 12 50 11.104 50 10V2C50 0.896 50.894 0 52 0C53.106 0 54 0.896 54 2V10C54 11.104 53.106 12 52 12Z" fill="black"/>
<path d="M12 38C13.1046 38 14 37.1046 14 36C14 34.8954 13.1046 34 12 34C10.8954 34 10 34.8954 10 36C10 37.1046 10.8954 38 12 38Z" fill="black"/>
<path d="M12 46.0001C13.1046 46.0001 14 45.1046 14 44C14 42.8954 13.1046 42 12 42C10.8954 42 10 42.8954 10 44C10 45.1046 10.8954 46.0001 12 46.0001Z" fill="black"/>
<path d="M12 54.0001C13.1046 54.0001 14 53.1046 14 52C14 50.8954 13.1046 50 12 50C10.8954 50 10 50.8954 10 52C10 53.1046 10.8954 54.0001 12 54.0001Z" fill="black"/>
<path d="M44 30C45.1046 30 46 29.1046 46 28C46 26.8954 45.1046 26 44 26C42.8954 26 42 26.8954 42 28C42 29.1046 42.8954 30 44 30Z" fill="black"/>
<path d="M44 38C45.1046 38 46 37.1046 46 36C46 34.8954 45.1046 34 44 34C42.8954 34 42 34.8954 42 36C42 37.1046 42.8954 38 44 38Z" fill="black"/>
<path d="M44 46.0001C45.1046 46.0001 46 45.1046 46 44C46 42.8954 45.1046 42 44 42C42.8954 42 42 42.8954 42 44C42 45.1046 42.8954 46.0001 44 46.0001Z" fill="black"/>
<path d="M44 54.0001C45.1046 54.0001 46 53.1046 46 52C46 50.8954 45.1046 50 44 50C42.8954 50 42 50.8954 42 52C42 53.1046 42.8954 54.0001 44 54.0001Z" fill="black"/>
<path d="M52 30C53.1046 30 54 29.1046 54 28C54 26.8954 53.1046 26 52 26C50.8954 26 50 26.8954 50 28C50 29.1046 50.8954 30 52 30Z" fill="black"/>
<path d="M52 38C53.1046 38 54 37.1046 54 36C54 34.8954 53.1046 34 52 34C50.8954 34 50 34.8954 50 36C50 37.1046 50.8954 38 52 38Z" fill="black"/>
<path d="M52 46.0001C53.1046 46.0001 54 45.1046 54 44C54 42.8954 53.1046 42 52 42C50.8954 42 50 42.8954 50 44C50 45.1046 50.8954 46.0001 52 46.0001Z" fill="black"/>
<path d="M28 30C29.1046 30 30 29.1046 30 28C30 26.8954 29.1046 26 28 26C26.8954 26 26 26.8954 26 28C26 29.1046 26.8954 30 28 30Z" fill="black"/>
<path d="M28 38C29.1046 38 30 37.1046 30 36C30 34.8954 29.1046 34 28 34C26.8954 34 26 34.8954 26 36C26 37.1046 26.8954 38 28 38Z" fill="black"/>
<path d="M28 46.0001C29.1046 46.0001 30 45.1046 30 44C30 42.8954 29.1046 42 28 42C26.8954 42 26 42.8954 26 44C26 45.1046 26.8954 46.0001 28 46.0001Z" fill="black"/>
<path d="M28 54.0001C29.1046 54.0001 30 53.1046 30 52C30 50.8954 29.1046 50 28 50C26.8954 50 26 50.8954 26 52C26 53.1046 26.8954 54.0001 28 54.0001Z" fill="black"/>
<path d="M20 30C21.1046 30 22 29.1046 22 28C22 26.8954 21.1046 26 20 26C18.8954 26 18 26.8954 18 28C18 29.1046 18.8954 30 20 30Z" fill="black"/>
<path d="M20 38C21.1046 38 22 37.1046 22 36C22 34.8954 21.1046 34 20 34C18.8954 34 18 34.8954 18 36C18 37.1046 18.8954 38 20 38Z" fill="black"/>
<path d="M20 46.0001C21.1046 46.0001 22 45.1046 22 44C22 42.8954 21.1046 42 20 42C18.8954 42 18 42.8954 18 44C18 45.1046 18.8954 46.0001 20 46.0001Z" fill="black"/>
<path d="M20 54.0001C21.1046 54.0001 22 53.1046 22 52C22 50.8954 21.1046 50 20 50C18.8954 50 18 50.8954 18 52C18 53.1046 18.8954 54.0001 20 54.0001Z" fill="black"/>
<path d="M36 30C37.1046 30 38 29.1046 38 28C38 26.8954 37.1046 26 36 26C34.8954 26 34 26.8954 34 28C34 29.1046 34.8954 30 36 30Z" fill="black"/>
<path d="M36 38C37.1046 38 38 37.1046 38 36C38 34.8954 37.1046 34 36 34C34.8954 34 34 34.8954 34 36C34 37.1046 34.8954 38 36 38Z" fill="black"/>
<path d="M36 46.0001C37.1046 46.0001 38 45.1046 38 44C38 42.8954 37.1046 42 36 42C34.8954 42 34 42.8954 34 44C34 45.1046 34.8954 46.0001 36 46.0001Z" fill="black"/>
<path d="M36 54.0001C37.1046 54.0001 38 53.1046 38 52C38 50.8954 37.1046 50 36 50C34.8954 50 34 50.8954 34 52C34 53.1046 34.8954 54.0001 36 54.0001Z" fill="black"/>
</svg>
