<svg width="58" height="81" viewBox="0 0 58 81" fill="none" xmlns="http://www.w3.org/2000/svg">
<path d="M54.2857 11.9834H48.5714C48.5714 8.82253 46.013 6.26038 42.8571 6.26038H34.2857C34.2857 3.09951 31.7273 0.537354 28.5714 0.537354C25.4155 0.537354 22.8571 3.09951 22.8571 6.26038H14.2857C11.1298 6.26038 8.57142 8.82253 8.57142 11.9834H2.85714C1.27912 11.9834 0 13.2645 0 14.8449V77.7982C0 79.3784 1.27912 80.6597 2.85714 80.6597H54.2857C55.8637 80.6597 57.1428 79.3784 57.1428 77.7982V14.8449C57.1428 13.2645 55.8637 11.9834 54.2857 11.9834ZM11.4286 11.9834C11.4286 10.4056 12.7103 9.12189 14.2857 9.12189H22.8571H25.7143V6.26038C25.7143 4.68256 26.996 3.39886 28.5714 3.39886C30.1468 3.39886 31.4286 4.68256 31.4286 6.26038V9.12189H34.2857H42.8571C44.4325 9.12189 45.7143 10.4056 45.7143 11.9834V14.8449H11.4286V11.9834ZM54.2857 77.7982H2.85714V14.8449H8.57142V16.2757C8.57142 17.0658 9.21107 17.7064 9.99999 17.7064H47.1428C47.9317 17.7064 48.5714 17.0658 48.5714 16.2757V14.8449H54.2857V77.7982Z" fill="black"/>
<path d="M44.2855 29.1525H29.9999C29.2109 29.1525 28.5713 29.7929 28.5713 30.5833C28.5713 31.3734 29.2109 32.014 29.9999 32.014H44.2855C45.0745 32.014 45.7141 31.3734 45.7141 30.5833C45.7141 29.7929 45.0745 29.1525 44.2855 29.1525Z" fill="black"/>
<path d="M20.2401 29.7896L15.4912 36.9224L13.8673 35.2946C13.3093 34.7357 12.4053 34.7357 11.8472 35.2946C11.2892 35.8535 11.2892 36.7589 11.8472 37.3178L14.7044 40.1793C14.9722 40.449 15.3378 40.5985 15.7144 40.5985C15.7619 40.5985 15.8093 40.5957 15.8539 40.5915C16.2808 40.5496 16.6659 40.3177 16.9031 39.9614L22.6174 31.3768C23.0554 30.7187 22.8768 29.8315 22.2212 29.3927C21.571 28.9596 20.681 29.1287 20.2401 29.7896Z" fill="black"/>
<path d="M44.2855 37.7371H24.2855C23.4966 37.7371 22.8569 38.3773 22.8569 39.1673C22.8569 39.9571 23.4966 40.5975 24.2855 40.5975H44.2855C45.0744 40.5975 45.7141 39.9571 45.7141 39.1673C45.7141 38.3773 45.0744 37.7371 44.2855 37.7371Z" fill="black"/>
<path d="M44.2855 54.9062H29.9999C29.2109 54.9062 28.5713 55.5462 28.5713 56.3359C28.5713 57.1255 29.2109 57.7656 29.9999 57.7656H44.2855C45.0745 57.7656 45.7141 57.1255 45.7141 56.3359C45.7141 55.5462 45.0745 54.9062 44.2855 54.9062Z" fill="black"/>
<path d="M20.2401 55.5432L15.4912 62.6759L13.8673 61.0482C13.3093 60.4893 12.4053 60.4893 11.8472 61.0482C11.2892 61.607 11.2892 62.5124 11.8472 63.0713L14.7044 65.9328C14.9722 66.2024 15.3378 66.3519 15.7144 66.3519C15.7619 66.3519 15.8093 66.3491 15.8539 66.3449C16.2808 66.303 16.6659 66.0711 16.9031 65.7148L22.6174 57.1304C23.0554 56.4724 22.8768 55.5851 22.2212 55.1464C21.571 54.7119 20.681 54.8837 20.2401 55.5432Z" fill="black"/>
<path d="M44.2855 63.4905H24.2855C23.4966 63.4905 22.8569 64.1309 22.8569 64.9212C22.8569 65.7113 23.4966 66.3519 24.2855 66.3519H44.2855C45.0744 66.3519 45.7141 65.7113 45.7141 64.9212C45.7141 64.1309 45.0744 63.4905 44.2855 63.4905Z" fill="black"/>
</svg>
