<svg width="88" height="57" viewBox="0 0 88 57" fill="none" xmlns="http://www.w3.org/2000/svg">
<path d="M57.1497 19.4098C54.5278 18.2049 51.7481 17.3863 48.8864 16.9742C47.8393 16.8218 46.8651 17.5526 46.7147 18.6041C46.5634 19.6555 47.2931 20.6275 48.3421 20.7791C50.8376 21.1385 53.263 21.8527 55.55 22.9033C55.8092 23.0224 56.0795 23.0779 56.348 23.0779C57.0759 23.0779 57.7696 22.6621 58.0934 21.9571C58.5372 20.9925 58.1137 19.8523 57.1497 19.4098Z" fill="black"/>
<path d="M73.6155 38.5292C71.8294 32.3497 68.0211 26.7856 62.887 22.8625C62.0438 22.2185 60.8417 22.3811 60.1987 23.2247C59.5556 24.0683 59.718 25.2741 60.5594 25.9181C65.044 29.3441 68.3707 34.2023 69.9308 39.5973C70.1725 40.439 70.94 40.986 71.7722 40.986C71.9484 40.986 72.1292 40.961 72.3054 40.9102C73.323 40.6145 73.9107 39.5474 73.6155 38.5292Z" fill="black"/>
<path d="M87.3741 46.6649C87.0281 46.08 86.4008 45.7215 85.7236 45.7215H84.2115C83.4384 35.8767 79.1504 26.7331 72.0163 19.8089C65.7835 13.7579 57.9261 9.94004 49.4607 8.76199V6.03907C49.4607 2.92438 46.9311 0.390869 43.8202 0.390869C40.7112 0.390869 38.1816 2.92438 38.1816 6.03907V8.76199C29.7162 9.93912 21.8588 13.7579 15.6251 19.8089C8.49193 26.7349 4.20482 35.8776 3.43172 45.7233H1.91873C1.24157 45.7233 0.614234 46.0809 0.268276 46.6658C-0.0776822 47.2516 -0.0896753 47.9741 0.235987 48.5692L4.01293 55.4767C4.34874 56.0921 4.9936 56.4764 5.69567 56.4764H81.9494C82.6506 56.4764 83.2954 56.0921 83.6313 55.4767L87.4073 48.5692C87.7329 47.9732 87.72 47.2497 87.3741 46.6649ZM42.0194 6.04091C42.0194 5.0458 42.8276 4.23641 43.8202 4.23641C44.8138 4.23641 45.6229 5.0458 45.6229 6.04091V8.41365C45.0233 8.38686 44.4227 8.373 43.8202 8.373C43.2187 8.373 42.6172 8.38778 42.0194 8.41365V6.04091ZM18.2968 22.5706C25.1754 15.8931 34.2395 12.2158 43.8212 12.2158C53.4019 12.2158 62.4669 15.8931 69.3464 22.5706C75.7305 28.7686 79.5988 36.9281 80.3608 45.7233H7.28062C8.04357 36.9272 11.9128 28.7677 18.2968 22.5706ZM80.8119 52.63H6.83225L5.15689 49.567H5.24454H82.3987H82.4854L80.8119 52.63Z" fill="black"/>
</svg>
