<svg width="74" height="59" viewBox="0 0 74 59" fill="none" xmlns="http://www.w3.org/2000/svg">
<path d="M18.9355 35.3464C16.7895 35.3464 15.1484 36.9875 15.1484 39.1335V51.7572C15.1484 52.5146 15.6534 53.0195 16.4108 53.0195H21.4603C22.2177 53.0195 22.7227 52.5146 22.7227 51.7572V39.1335C22.7227 36.9875 21.0816 35.3464 18.9355 35.3464ZM20.1979 50.4948H17.6732V39.1335C17.6732 38.3761 18.1781 37.8711 18.9355 37.8711C19.693 37.8711 20.1979 38.3761 20.1979 39.1335V50.4948Z" fill="black"/>
<path d="M54.2822 35.3464C52.1362 35.3464 50.4951 36.9875 50.4951 39.1335V51.7572C50.4951 52.5146 51.0001 53.0195 51.7575 53.0195H56.807C57.5644 53.0195 58.0693 52.5146 58.0693 51.7572V39.1335C58.0693 36.9875 56.4283 35.3464 54.2822 35.3464ZM55.5446 50.4948H53.0199V39.1335C53.0199 38.3761 53.5248 37.8711 54.2822 37.8711C55.0396 37.8711 55.5446 38.3761 55.5446 39.1335V50.4948Z" fill="black"/>
<path d="M56.8066 20.1979H46.7077C45.9503 20.1979 45.4453 20.7028 45.4453 21.4602V31.5592C45.4453 32.3166 45.9503 32.8216 46.7077 32.8216H56.8066C57.5641 32.8216 58.069 32.3166 58.069 31.5592V21.4602C58.069 20.7028 57.5641 20.1979 56.8066 20.1979ZM55.5443 30.2968H47.9701V22.7226H55.5443V30.2968Z" fill="black"/>
<path d="M41.6582 20.1979H31.5592C30.8018 20.1979 30.2969 20.7028 30.2969 21.4602V31.5592C30.2969 32.3166 30.8018 32.8216 31.5592 32.8216H41.6582C42.4156 32.8216 42.9206 32.3166 42.9206 31.5592V21.4602C42.9206 20.7028 42.4156 20.1979 41.6582 20.1979ZM40.3958 30.2968H32.8216V22.7226H40.3958V30.2968Z" fill="black"/>
<path d="M26.5098 20.1979H16.4108C15.6534 20.1979 15.1484 20.7028 15.1484 21.4602V31.5592C15.1484 32.3166 15.6534 32.8216 16.4108 32.8216H26.5098C27.2672 32.8216 27.7721 32.3166 27.7721 31.5592V21.4602C27.7721 20.7028 27.2672 20.1979 26.5098 20.1979ZM25.2474 30.2968H17.6732V22.7226H25.2474V30.2968Z" fill="black"/>
<path d="M56.8066 5.0495H46.7077C45.9503 5.0495 45.4453 5.55445 45.4453 6.31187V16.4108C45.4453 17.1682 45.9503 17.6732 46.7077 17.6732H56.8066C57.5641 17.6732 58.069 17.1682 58.069 16.4108V6.31187C58.069 5.55445 57.5641 5.0495 56.8066 5.0495ZM55.5443 15.1485H47.9701V7.57424H55.5443V15.1485Z" fill="black"/>
<path d="M41.6582 5.0495H31.5592C30.8018 5.0495 30.2969 5.55445 30.2969 6.31187V16.4108C30.2969 17.1682 30.8018 17.6732 31.5592 17.6732H41.6582C42.4156 17.6732 42.9206 17.1682 42.9206 16.4108V6.31187C42.9206 5.55445 42.4156 5.0495 41.6582 5.0495ZM40.3958 15.1485H32.8216V7.57424H40.3958V15.1485Z" fill="black"/>
<path d="M26.5098 5.0495H16.4108C15.6534 5.0495 15.1484 5.55445 15.1484 6.31187V16.4108C15.1484 17.1682 15.6534 17.6732 16.4108 17.6732H26.5098C27.2672 17.6732 27.7721 17.1682 27.7721 16.4108V6.31187C27.7721 5.55445 27.2672 5.0495 26.5098 5.0495ZM25.2474 15.1485H17.6732V7.57424H25.2474V15.1485Z" fill="black"/>
<path d="M71.955 55.5442H63.1184V1.26237C63.1184 0.504947 62.6135 0 61.8561 0H11.3613C10.6039 0 10.099 0.504947 10.099 1.26237V55.5442H1.26237C0.504947 55.5442 0 56.0492 0 56.8066C0 57.564 0.504947 58.069 1.26237 58.069H11.3613H26.5097H46.7076H61.8561H71.955C72.7124 58.069 73.2174 57.564 73.2174 56.8066C73.2174 56.0492 72.7124 55.5442 71.955 55.5442ZM27.7721 55.5442V37.8711H35.3463V55.5442H27.7721ZM37.8711 55.5442V37.8711H45.4453V55.5442H37.8711ZM47.97 55.5442V36.6087C47.97 35.8513 47.4651 35.3463 46.7076 35.3463H26.5097C25.7523 35.3463 25.2474 35.8513 25.2474 36.6087V55.5442H12.6237V2.52474H60.5937V55.5442H47.97Z" fill="black"/>
</svg>
