<svg width="56" height="79" viewBox="0 0 56 79" fill="none" xmlns="http://www.w3.org/2000/svg">
<path d="M55.6205 7.05795C55.3675 6.67873 54.9879 6.55232 54.6084 6.42591C47.3974 6.04668 42.5901 4.27696 39.0478 0.611094C38.7948 0.484685 38.4153 0.358276 38.0357 0.358276C37.9092 0.358276 37.9092 0.358276 37.7827 0.358276C37.2767 0.358276 36.7707 0.611094 36.6442 1.11673C33.1019 2.25441 20.198 2.128 18.6799 0.737503C18.6799 0.737503 18.5534 0.611094 18.4269 0.611094C18.3004 0.611094 18.3004 0.484685 18.1739 0.484685C18.1739 0.484685 18.0474 0.484685 17.9208 0.484685C17.7943 0.358276 17.7943 0.358276 17.6678 0.358276C17.6678 0.358276 17.6678 0.358276 17.5413 0.358276H17.4148C17.2883 0.358276 17.2883 0.358276 17.1618 0.484685C17.0353 0.484685 17.0353 0.611094 16.9088 0.611094C16.9088 0.611094 16.7823 0.611094 16.7823 0.737503C13.24 4.40337 8.43268 6.17309 1.22168 6.55232C0.84215 6.55232 0.462625 6.80514 0.209607 7.18436C-0.0434107 7.56359 -0.0434111 7.81641 0.0830977 8.19564C0.462624 9.33332 0.96866 10.3446 1.4747 11.3559C3.75185 16.1594 5.9025 20.5837 2.10724 34.1095C2.10724 34.3623 1.98073 34.4887 2.10724 34.7415C4.76392 47.256 4.76392 58.38 2.10724 68.9984C1.98073 69.6304 2.23375 70.2625 2.86629 70.5153L21.3366 78.7319C21.8426 78.9847 22.4752 78.8583 22.8547 78.3526L28.0415 72.0322L33.2284 78.3526C33.4814 78.6055 33.861 78.8583 34.2405 78.8583C34.367 78.8583 34.62 78.8583 34.7465 78.7319L53.2168 70.5153C53.7228 70.2625 54.1024 69.6304 53.9759 68.9984C51.3192 58.38 51.3192 47.256 53.9759 34.7415C53.9759 34.4887 53.9759 34.3623 53.9759 34.1095C50.1806 20.7101 52.3312 16.1594 54.6084 11.3559C55.1144 10.3446 55.6205 9.33332 56 8.19564C55.8735 7.81641 55.8735 7.43718 55.6205 7.05795ZM36.3911 3.64491C36.0116 14.6425 34.62 26.3985 28.5476 35.1208C23.9933 29.1795 20.8305 18.814 19.1859 3.64491C21.9691 4.40336 25.8909 4.40336 27.915 4.40336C29.8127 4.40336 33.6079 4.27696 36.3911 3.64491ZM21.3366 75.9509L4.76392 68.6191C7.2941 58.0008 7.2941 46.8768 4.63742 34.4887C8.6857 20.3309 6.15552 15.2745 3.75185 10.3446C3.49884 9.83895 3.37233 9.45973 3.11931 8.95409C8.93872 8.44845 13.24 6.93155 16.6558 4.27696C18.4269 20.4573 21.7161 31.0757 26.903 37.2697C26.1439 38.1546 25.3849 38.913 24.4993 39.6715C24.2463 39.9243 24.1198 40.3035 24.1198 40.5563V65.2061C24.1198 65.4589 24.1198 65.5853 24.2463 65.8381L26.3969 69.7568L21.3366 75.9509ZM52.0782 10.2182C49.6746 15.1481 47.2709 20.3309 51.1927 34.3623C48.536 46.7504 48.536 57.8744 51.0662 68.4927L34.4935 75.8245L29.0536 69.1248L26.65 64.8269V41.062C36.5176 31.7077 38.2888 17.1707 38.9213 3.89773C42.4636 6.80514 46.7649 8.32204 52.7108 8.82768C52.4578 9.33332 52.3312 9.83895 52.0782 10.2182Z" fill="white"/>
<path d="M31.0783 43.3373C30.0662 43.3373 29.1807 44.2222 29.1807 45.2335C29.1807 46.2447 30.0662 47.1296 31.0783 47.1296C32.0904 47.1296 32.9759 46.2447 32.9759 45.2335C32.9759 44.2222 32.0904 43.3373 31.0783 43.3373ZM31.0783 45.8655C30.6988 45.8655 30.4458 45.6127 30.4458 45.2335C30.4458 44.8542 30.6988 44.6014 31.0783 44.6014C31.4578 44.6014 31.7108 44.8542 31.7108 45.2335C31.7108 45.6127 31.4578 45.8655 31.0783 45.8655Z" fill="white"/>
<path d="M31.0783 50.9219C30.0662 50.9219 29.1807 51.8067 29.1807 52.818C29.1807 53.8293 30.0662 54.7141 31.0783 54.7141C32.0904 54.7141 32.9759 53.8293 32.9759 52.818C32.9759 51.8067 32.0904 50.9219 31.0783 50.9219ZM31.0783 53.4501C30.6988 53.4501 30.4458 53.1972 30.4458 52.818C30.4458 52.4388 30.6988 52.186 31.0783 52.186C31.4578 52.186 31.7108 52.4388 31.7108 52.818C31.7108 53.1972 31.4578 53.4501 31.0783 53.4501Z" fill="white"/>
<path d="M31.0783 58.5064C30.0662 58.5064 29.1807 59.3913 29.1807 60.4025C29.1807 61.4138 30.0662 62.2987 31.0783 62.2987C32.0904 62.2987 32.9759 61.4138 32.9759 60.4025C32.9759 59.3913 32.0904 58.5064 31.0783 58.5064ZM31.0783 61.0346C30.6988 61.0346 30.4458 60.7818 30.4458 60.4025C30.4458 60.0233 30.6988 59.7705 31.0783 59.7705C31.4578 59.7705 31.7108 60.0233 31.7108 60.4025C31.7108 60.7818 31.4578 61.0346 31.0783 61.0346Z" fill="white"/>
<path d="M18.047 57.1159L10.836 54.8405C10.2034 54.5877 9.44436 54.9669 9.19134 55.7254C8.93833 56.3574 9.31785 57.1159 10.0769 57.3687L17.2879 59.6441C17.4144 59.6441 17.5409 59.6441 17.6674 59.6441C18.1735 59.6441 18.6795 59.2648 18.9325 58.7592C19.059 58.1271 18.6795 57.3687 18.047 57.1159Z" fill="white"/>
<path d="M37.7828 57.1159C37.1503 57.3687 36.7708 58.0007 36.8973 58.7592C37.0238 59.2648 37.5298 59.6441 38.1624 59.6441C38.2889 59.6441 38.4154 59.6441 38.5419 59.6441L45.7529 57.3687C46.3854 57.1159 46.765 56.4838 46.6385 55.7254C46.3854 55.0933 45.7529 54.7141 44.9939 54.8405L37.7828 57.1159Z" fill="white"/>
</svg>
