<svg width="65" height="64" viewBox="0 0 65 64" fill="none" xmlns="http://www.w3.org/2000/svg">
<path d="M63.8044 35.3032L39.4431 17.0323V14.0387C39.4431 10.7355 38.5141 7.53548 36.7592 4.74839L34.6947 1.34194C34.1786 0.516129 33.2495 0 32.2173 0C31.185 0 30.256 0.516129 29.7399 1.34194L27.6754 4.74839C25.9205 7.53548 24.9915 10.7355 24.9915 14.0387V17.0323L0.630188 35.3032C0.320511 35.5097 0.217285 35.8194 0.217285 36.129V43.3548C0.217285 43.6645 0.423737 44.0774 0.733414 44.2839C0.83664 44.2839 1.04309 44.3871 1.24954 44.3871C1.45599 44.3871 1.55922 44.3871 1.66245 44.2839L24.9915 32.6194V43.9742C24.9915 46.8645 25.4044 49.6516 26.0237 52.3355L19.2108 57.4968C18.9012 57.7032 18.7979 58.0129 18.7979 58.3226V61.9355C18.7979 62.2452 19.0044 62.6581 19.3141 62.8645C19.5205 62.9677 19.6237 62.9677 19.8302 62.9677C20.0366 62.9677 20.1399 62.9677 20.2431 62.8645L28.2947 58.8387L29.7399 62.4516C30.256 63.3806 31.185 64 32.2173 64C33.2495 64 34.1786 63.3806 34.5915 62.4516L36.1399 58.8387L44.1915 62.8645C44.2947 62.9677 44.3979 62.9677 44.6044 62.9677C44.8108 62.9677 45.0173 62.8645 45.1205 62.8645C45.4302 62.6581 45.6366 62.3484 45.6366 61.9355V58.3226C45.6366 58.0129 45.5334 57.7032 45.2237 57.4968L38.4108 52.3355C39.1334 49.6516 39.4431 46.7613 39.4431 43.9742V32.6194L62.7721 44.2839C62.8753 44.3871 62.9786 44.3871 63.185 44.3871C63.3915 44.3871 63.5979 44.2839 63.7012 44.2839C64.0108 44.0774 64.2173 43.7677 64.2173 43.3548V36.129C64.2173 35.8194 64.1141 35.5097 63.8044 35.3032ZM2.2818 41.7032V36.6452L24.9915 19.6129V30.3484L2.2818 41.7032ZM20.8624 60.2839V58.8387L26.6431 54.5032C26.6431 54.6064 26.7463 54.7097 26.7463 54.9161C26.7463 55.0194 26.8495 55.1226 26.8495 55.2258C27.056 55.7419 27.2624 56.3613 27.4689 56.9806L20.8624 60.2839ZM32.7334 61.6258C32.527 62.0387 31.9076 62.0387 31.8044 61.6258L29.8431 57.0839L29.5334 56.3613C29.0173 55.0194 28.6044 53.7806 28.1915 52.5419C27.3657 49.7548 27.056 46.9677 27.056 44.0774V30.9677V17.5484V14.0387C27.056 11.1484 27.8818 8.25806 29.4302 5.88387L31.4947 2.47742C31.7012 2.16774 31.9076 2.06452 32.2173 2.06452C32.527 2.06452 32.7334 2.16774 32.9399 2.47742L35.0044 5.88387C36.5528 8.25806 37.3786 11.1484 37.3786 14.0387V17.5484V30.9677V43.9742C37.3786 46.8645 36.9657 49.7548 36.2431 52.5419C35.9334 53.7806 35.5205 55.0194 35.0044 56.3613L34.6947 57.0839L32.7334 61.6258ZM43.5721 60.2839L36.8624 56.9806C37.0689 56.3613 37.2753 55.8452 37.4818 55.2258C37.4818 55.1226 37.585 55.0194 37.585 54.9161C37.585 54.8129 37.6883 54.7097 37.6883 54.5032L43.5721 58.8387V60.2839ZM62.1528 41.7032L39.4431 30.3484V19.6129L62.1528 36.6452V41.7032Z" fill="black"/>
</svg>
