<svg width="50" height="87" viewBox="0 0 50 87" fill="none" xmlns="http://www.w3.org/2000/svg">
<path d="M48.896 76.1777C45.9458 67.4636 36.1117 38.2294 36.1117 31.7641C36.1117 24.4556 39.7644 20.6607 39.7644 20.6607C40.0454 20.3796 40.1859 20.0985 40.1859 19.6769V1.40549C40.1859 0.562197 39.6239 0 38.781 0H34.7069C34.2854 0 34.0044 0.140549 33.7235 0.421648C33.4425 0.702746 33.302 0.983845 33.302 1.40549C33.302 1.54604 33.1615 14.1955 24.5918 14.1955C16.0221 14.1955 15.8817 1.96769 15.8817 1.40549C15.8817 0.562197 15.3197 0 14.4768 0H10.4027C9.55975 0 8.9978 0.562197 8.9978 1.40549V19.5363C8.9978 19.958 9.13829 20.2391 9.41927 20.5202C9.41927 20.5202 13.0719 24.315 13.0719 31.6236C13.0719 38.0889 3.23785 67.1825 0.287629 76.0372C-0.133831 77.4426 -0.133831 78.8481 0.568602 80.1131C1.13055 81.378 2.25444 82.3619 3.65931 82.7835L5.48564 83.3457C5.62612 83.3457 5.9071 83.4863 6.04758 83.6268L9.84073 86.1567C11.3861 87.1405 13.4934 87.2811 15.1792 86.4378L15.4602 86.2973C16.1626 85.8756 17.0055 86.0162 17.708 86.2973L17.989 86.4378C19.6748 87.2811 21.7821 87.1405 23.3274 86.1567C24.1704 85.5945 25.2943 85.5945 26.1372 86.1567C26.9801 86.7189 28.104 87 29.0874 87C29.9303 87 30.7732 86.8594 31.4757 86.4378L31.7566 86.2973C32.4591 85.8756 33.302 86.0162 34.0044 86.2973L34.2854 86.4378C35.9713 87.2811 38.0786 87.1405 39.6239 86.1567L43.4171 83.6268C43.5575 83.4863 43.8385 83.3457 43.979 83.3457L45.8053 82.7835C47.2102 82.3619 48.1936 81.378 48.896 80.1131C49.3175 78.8481 49.3175 77.4426 48.896 76.1777ZM46.0863 78.9887C45.8053 79.5509 45.2434 79.9725 44.6814 80.2536L42.8551 80.8158C42.4336 80.9564 42.0122 81.2375 41.5907 81.378L37.7976 83.9079C37.0951 84.4701 36.1117 84.4701 35.2688 84.0485L34.9878 83.9079C33.4425 83.2052 31.7567 83.2052 30.2113 83.9079L29.9303 84.0485C29.0874 84.4701 28.2445 84.3296 27.4016 83.9079C26.5586 83.3457 25.4347 83.0646 24.4513 83.0646C23.4679 83.0646 22.344 83.3457 21.5011 83.9079C20.7987 84.4701 19.8153 84.4701 18.9724 84.0485L18.6914 83.9079C17.146 83.2052 15.4602 83.2052 13.9148 83.9079L13.6339 84.0485C12.7909 84.4701 11.948 84.3296 11.1051 83.9079L7.31197 81.378C6.89051 81.0969 6.46904 80.9564 6.04758 80.8158L4.50223 80.1131C3.7998 79.832 3.37834 79.4103 3.09736 78.8481C2.81639 78.2859 2.81639 77.5832 2.95688 76.8804C6.89051 65.496 15.8817 38.3699 15.8817 31.6236C15.8817 24.4556 12.9314 20.2391 11.8075 18.9742V2.81099H13.0719C13.4934 8.43296 16.1626 17.0065 24.5918 17.0065C33.021 17.0065 35.6903 8.43296 36.1117 2.81099H37.3761V19.1147C36.2522 20.5202 33.302 24.7367 33.302 31.7641C33.302 38.5105 42.2932 65.6365 46.2268 77.021C46.5078 77.5832 46.3673 78.2859 46.0863 78.9887Z" fill="white"/>
<path d="M34.5658 66.8853C34.2849 66.1825 33.442 65.7609 32.7395 66.042C32.0371 66.3231 31.6156 67.1664 31.8966 67.8691L34.7063 75.4588C34.8468 76.021 35.4088 76.4426 35.9707 76.4426C36.1112 76.4426 36.2517 76.4426 36.3922 76.3021C37.0946 76.021 37.5161 75.1777 37.2351 74.4749L34.5658 66.8853Z" fill="white"/>
<path d="M16.4438 66.042C15.7414 65.7609 14.8984 66.1825 14.6175 66.8853L11.8077 74.4749C11.5268 75.1777 11.9482 76.021 12.6507 76.3021C12.7911 76.3021 12.9316 76.4426 13.0721 76.4426C13.6341 76.4426 14.196 76.1615 14.3365 75.4588L17.1462 67.8691C17.4272 67.1664 17.1462 66.3231 16.4438 66.042Z" fill="white"/>
<path d="M24.5924 65.761C23.7494 65.761 23.1875 66.3232 23.1875 67.1665V75.3183C23.1875 76.1616 23.7494 76.7238 24.5924 76.7238C25.4353 76.7238 25.9972 76.1616 25.9972 75.3183V67.1665C25.9972 66.3232 25.4353 65.761 24.5924 65.761Z" fill="white"/>
</svg>
