<svg width="88" height="100" viewBox="0 0 88 100" fill="none" xmlns="http://www.w3.org/2000/svg">
<path d="M44.1129 0C44.1053 0 44.0977 0 44.0902 0C43.395 0.0125225 42.8409 0.582298 42.8522 1.27479L42.9605 7.51102C42.9731 8.19475 43.5348 8.74073 44.2199 8.74073C44.2275 8.74073 44.235 8.74073 44.2426 8.74073C44.9377 8.72821 45.4919 8.15843 45.4805 7.46594L45.3722 1.22971C45.3596 0.545982 44.798 0 44.1129 0Z" fill="black"/>
<path d="M40.0003 12.0368C40.3302 12.0368 40.6589 11.9078 40.9057 11.6536C41.3893 11.1577 41.3755 10.3638 40.8755 9.8829L36.3632 5.54885C35.8632 5.06798 35.066 5.08426 34.5824 5.58015C34.0988 6.07605 34.1127 6.86997 34.6127 7.35084L39.125 11.6849C39.3706 11.9216 39.6854 12.0368 40.0003 12.0368Z" fill="black"/>
<path d="M49.2094 11.6848L53.7217 7.35077C54.2217 6.87116 54.2355 6.07723 53.7519 5.58134C53.2696 5.08544 52.4724 5.07042 51.9712 5.55128L47.4588 9.88533C46.9589 10.3649 46.945 11.1589 47.4286 11.6548C47.6755 11.909 48.0054 12.038 48.3341 12.038C48.649 12.0367 48.9638 11.9202 49.2094 11.6848Z" fill="black"/>
<path d="M19.0176 67.9512C22.4456 67.9512 26.1381 65.5782 29.5913 61.1064C33.4097 56.1613 36.5707 49.1486 38.4888 41.3621C39.6688 36.576 42.0478 24.5907 42.1989 19.7019C42.2178 19.1096 41.8173 18.5874 41.2392 18.4459L18.9987 13.0261C18.4269 12.8896 17.8237 13.1664 17.5655 13.6986C15.4258 18.1065 11.9638 29.8251 10.785 34.61C8.86576 42.3978 8.40735 50.0678 9.49293 56.2089C10.5193 62.0131 12.8479 65.895 16.1072 67.3314L9.27506 95.0538L1.55887 93.1741C0.888887 93.0063 0.201269 93.4196 0.0362909 94.092C-0.128687 94.7645 0.284387 95.442 0.959412 95.6073L18.8387 99.9639C18.9395 99.9889 19.0402 99.9989 19.1397 99.9989C19.7065 99.9989 20.2203 99.6157 20.3613 99.0447C20.5263 98.3722 20.1132 97.6948 19.4382 97.5295L11.722 95.6498L18.5554 67.9237C18.7103 67.9337 18.8627 67.9512 19.0176 67.9512ZM19.4155 15.7072L39.6272 20.6323C39.4736 22.6885 39.0492 25.5762 38.5291 28.5866L16.6336 23.4499C17.5882 20.4733 18.5781 17.6419 19.4155 15.7072ZM11.9752 55.7756C10.9475 49.9689 11.3946 42.6645 13.232 35.2073C13.7622 33.0572 14.7571 29.4908 15.8792 25.8467L38.0858 31.0561C37.3767 34.8705 36.5833 38.5784 36.0443 40.7661C34.2069 48.2232 31.2058 54.9053 27.5952 59.5812C24.2515 63.9102 20.719 66.0065 17.903 65.3127C15.0858 64.6265 12.926 61.1515 11.9752 55.7756Z" fill="black"/>
<path d="M18.791 56.6646C17.65 53.8946 17.2055 44.7494 19.8741 33.9211C20.0391 33.2487 19.626 32.5712 18.951 32.4059C18.2785 32.2394 17.5934 32.6526 17.4284 33.3238C14.5948 44.8195 15.1577 54.4481 16.4612 57.6125C16.6602 58.0972 17.1312 58.3902 17.6274 58.3902C17.786 58.3902 17.9472 58.3614 18.1034 58.2975C18.7469 58.0358 19.0555 57.3045 18.791 56.6646Z" fill="black"/>
<path d="M68.5616 97.5305C67.8853 97.6958 67.4722 98.3733 67.6385 99.0458C67.7795 99.6168 68.2946 100 68.8601 100C68.9596 100 69.0603 99.9887 69.1611 99.9649L87.0404 95.6083C87.7167 95.443 88.1298 94.7656 87.9635 94.0931C87.7973 93.4219 87.1084 93.0086 86.4409 93.1752L78.7235 95.0548L71.8914 67.3324C75.1507 65.8961 77.4792 62.0141 78.5056 56.2099C79.5925 50.0689 79.134 42.3988 77.2148 34.611C76.036 29.8274 72.574 18.1088 70.4343 13.6997C70.1749 13.1674 69.5741 12.8957 68.9999 13.0272L46.7581 18.4469C46.18 18.5884 45.7808 19.1106 45.7984 19.703C45.9495 24.5905 48.3285 36.5758 49.5085 41.3632C51.4278 49.1497 54.5876 56.1611 58.406 61.1075C61.8592 65.5805 65.5517 67.9523 68.9797 67.9523C69.1346 67.9523 69.2883 67.9348 69.4419 67.9247L76.2753 95.6522L68.5616 97.5305ZM68.5855 15.707C69.423 17.6417 70.4129 20.4743 71.3687 23.4497L49.472 28.5852C48.9506 25.5748 48.5275 22.6871 48.3726 20.6309L68.5855 15.707ZM60.4072 59.581C56.7965 54.9051 53.7954 48.223 51.958 40.7659C51.419 38.5794 50.6256 34.8715 49.9166 31.0559L72.1231 25.8465C73.244 29.4906 74.2401 33.057 74.7703 35.2071C76.6077 42.6643 77.0536 49.9687 76.0272 55.7754C75.0763 61.1513 72.9153 64.6263 70.098 65.3125C67.2821 66.0063 63.7508 63.91 60.4072 59.581Z" fill="black"/>
<path d="M71.539 57.6136C72.8437 54.4479 73.4054 44.8193 70.5718 33.3249C70.4056 32.6537 69.723 32.2417 69.0492 32.407C68.3742 32.5723 67.9612 33.2497 68.1261 33.9222C70.7947 44.7504 70.3502 53.8944 69.2092 56.6656C68.946 57.3055 69.2533 58.0369 69.8968 58.2998C70.053 58.3637 70.2142 58.3925 70.3729 58.3925C70.869 58.3912 71.3388 58.0982 71.539 57.6136Z" fill="black"/>
</svg>
