<svg width="72" height="72" viewBox="0 0 72 72" fill="none" xmlns="http://www.w3.org/2000/svg">
<path d="M65.845 61.5523C69.4683 48.4485 65.5376 41.9112 64.6755 40.6867L61.5793 31.1829C61.0229 29.433 58.8963 28.5355 56.8369 29.184C56.3241 29.3471 55.8547 29.5961 55.4477 29.9073C54.7451 28.3779 52.7616 27.631 50.835 28.2369C50.2225 28.43 49.6796 28.7522 49.2252 29.1548L48.887 28.1833C48.8799 28.1644 48.8712 28.1455 48.8641 28.1258C62.2786 21.5546 74.39 11.9184 71.5949 4.91782C70.1653 1.33518 65.0066 -0.386413 57.0598 0.0729403C49.5642 0.506293 40.3017 2.78021 30.9783 6.4771C21.6549 10.1756 13.3564 14.8668 7.61051 19.6873C1.52319 24.7929 -1.04276 29.5787 0.38602 33.1614C1.67255 36.3863 5.83244 38.0811 12.4405 38.0811C12.7108 38.0811 12.985 38.0795 13.2632 38.0717C19.7662 37.9393 28.0346 36.2311 36.5432 33.2614C36.7234 33.1992 37.03 33.0589 37.03 33.0589L39.1866 40.0076C39.0697 40.0351 38.9551 40.0753 38.8453 40.1383C36.9368 41.2588 35.8368 42.8913 35.5744 44.995C34.6387 52.496 45.4375 64.0326 47.9419 66.5949L47.0726 70.2453C46.9145 70.9087 47.3262 71.5761 47.9924 71.7321C48.0888 71.755 48.1845 71.766 48.2793 71.766C48.8396 71.766 49.3493 71.3846 49.4836 70.8166L50.5102 66.4996C50.6105 66.0796 50.4833 65.6392 50.1751 65.3343C46.5494 61.7595 37.2971 51.1888 38.0337 45.2976C38.1893 44.0464 38.8121 43.0922 39.9224 42.3831L41.4855 47.4155C41.6499 47.945 42.1382 48.2862 42.6693 48.2862C42.7886 48.2862 42.9135 48.268 43.036 48.231C43.6887 48.0277 44.0546 47.3367 43.8531 46.6843L37.1715 25.1514C37.1012 24.9308 37.23 24.6945 37.313 24.5731C37.5161 24.2753 37.8693 24.0302 38.2786 23.9002C39.0887 23.6465 39.3265 24.0121 39.4585 24.4289L45.7797 43.0481L45.8959 43.3885C46.114 44.0346 46.8165 44.3813 47.4661 44.1622C48.1141 43.944 48.4626 43.2435 48.2429 42.5958L48.2042 42.4832C48.2026 42.4785 48.2026 42.4753 48.2003 42.4706L48.1552 42.3398L43.793 29.4928C43.8254 29.3786 43.8807 29.2777 43.9258 29.2116C44.1289 28.9137 44.4829 28.6679 44.8931 28.5387C45.6754 28.2936 46.3993 28.541 46.5336 28.961L50.9622 41.6724C51.0159 41.8308 51.1021 41.971 51.208 42.0876L51.2775 42.3035C51.4474 42.8251 51.9334 43.1576 52.4558 43.1576C52.583 43.1576 52.7118 43.1395 52.8383 43.0978C53.4886 42.885 53.845 42.1901 53.634 41.54L50.4762 31.8448C50.4051 31.6218 50.5339 31.387 50.6169 31.2649C50.8207 30.9678 51.174 30.722 51.5826 30.5928C52.3657 30.3469 53.0904 30.5936 53.2168 30.9915L56.3778 40.6938C56.4197 40.8215 56.4837 40.9326 56.5588 41.0342L57.2803 43.2498C57.4913 43.8991 58.1899 44.2528 58.841 44.044C59.4922 43.8329 59.8486 43.1364 59.6376 42.4863L56.4813 32.7887C56.4276 32.6224 56.49 32.4467 56.5501 32.3285C56.7303 31.9827 57.1183 31.6872 57.5869 31.5391C58.3708 31.2917 59.0931 31.5406 59.2188 31.937L62.3798 41.6401C62.428 41.7835 62.4999 41.9175 62.5947 42.0356C62.6413 42.0924 67.1711 47.8961 63.347 61.2844C63.2712 61.5475 63.2862 61.8272 63.3881 62.0833L67.0597 71.2247C67.2541 71.7077 67.7187 72 68.2103 72C68.3636 72 68.52 71.9708 68.6702 71.9125C69.3056 71.6588 69.6145 70.9403 69.3609 70.306L65.845 61.5523ZM31.8942 8.77308C51.5193 0.99086 67.3544 0.975889 69.2913 5.83101C69.4857 6.31637 69.5442 6.87185 69.4723 7.48484C62.3434 5.02892 48.0564 7.17756 33.5221 12.9411C18.8621 18.7567 7.21301 26.847 3.66952 33.5333C3.21196 33.1511 2.87769 32.7233 2.68803 32.249C0.752697 27.3938 12.2706 16.5585 31.8942 8.77308ZM44.1455 26.1844C43.6863 26.3302 43.2604 26.5445 42.8834 26.8116L41.8134 23.6615C41.2263 21.8068 39.4656 20.9361 37.5311 21.5452C36.5867 21.8438 35.7822 22.4253 35.2646 23.1824C34.6933 24.02 34.5265 25.0104 34.8071 25.8913L36.307 30.7283C36.307 30.7283 35.9363 30.8567 35.7253 30.93C21.9291 35.7442 11.056 36.4911 5.85299 34.6931C9.01716 28.6151 20.4403 20.7896 34.438 15.2371C48.5037 9.6587 62.1348 7.52188 68.682 9.82731C66.399 14.2294 59.3136 20.3491 47.2219 26.1781C47.1642 26.2065 47.1129 26.2419 47.0607 26.2766C46.2065 25.922 45.1681 25.8621 44.1455 26.1844Z" fill="black"/>
</svg>
