<svg width="100" height="65" viewBox="0 0 100 65" fill="none" xmlns="http://www.w3.org/2000/svg">
<path d="M85.6879 53.7818L75.0619 42.7074L71.4629 46.4905L67.8639 50.2736L67.7579 56.6041C67.6639 62.2173 67.5749 63.0229 66.9779 63.7117C66.0559 64.7739 63.8549 64.7688 62.8319 63.6995C62.0929 62.9275 62.0819 62.7611 62.3259 54.7476L62.5749 46.5798L67.9289 40.9584C70.8739 37.8673 73.7379 35.1717 74.2919 34.9698C75.4849 34.5356 73.8359 32.9601 88.9889 49.0197C99.3329 59.9824 99.9999 60.7696 99.9999 62.0205C99.9999 63.661 98.8959 64.8581 97.3829 64.8581C96.4549 64.8581 94.9309 63.4145 85.6879 53.7818Z" fill="#010101"/>
<path d="M51.1499 64.0079C50.6289 63.7644 47.7269 60.864 44.6979 57.5628C39.6999 52.1149 39.1929 51.4403 39.1929 50.2472C39.1929 48.765 39.6789 47.6237 40.7159 46.6742C41.3489 46.0949 42.3519 46.0289 50.4699 46.033C55.4479 46.036 59.8669 46.1365 60.2929 46.2552C61.0119 46.455 61.0729 46.7269 61.1769 50.163C61.2379 52.193 61.1549 53.941 60.9899 54.0445C60.8269 54.15 60.0989 53.6306 59.3749 52.892L58.0569 51.5458L52.6689 51.6493L47.2819 51.7517L51.0859 55.9507C54.3869 59.5948 54.8889 60.3151 54.8889 61.4037C54.8889 63.5128 52.9639 64.855 51.1499 64.0079Z" fill="#010101"/>
<path d="M70.4811 64.0525C68.6851 63.0065 68.5361 62.5459 68.5361 58.0426C68.5361 55.6981 68.6601 53.7817 68.8111 53.7817C68.9621 53.7817 70.1031 54.853 71.3451 56.1617L73.6031 58.5407L80.8232 58.6543C87.9252 58.7639 88.0552 58.7801 88.7192 59.6384C89.6592 60.8507 89.5792 62.483 88.5272 63.5828L87.6592 64.4887L79.4231 64.4786C74.0321 64.4694 70.9431 64.3223 70.4811 64.0525Z" fill="#010101"/>
<path d="M18.8638 45.2225C17.3408 43.3335 17.7598 42.391 21.9628 38.2518L25.5808 34.6879L25.9748 35.6496C26.5218 36.9867 27.6198 37.9241 28.8128 38.0733C30.1138 38.2346 29.9618 38.8839 28.2928 40.292C27.5788 40.8936 25.8698 42.5137 24.4938 43.8925C21.5088 46.8812 20.4098 47.1419 18.8638 45.2225Z" fill="#010101"/>
<path d="M41.5688 41.3116C40.2618 39.9359 38.8938 38.4659 38.9458 38.331C39.0158 38.1464 42.0368 38.2752 42.0368 38.2752L45.4438 38.1514C45.4438 38.1514 48.4047 35.5036 48.5237 35.3768L50.3947 33.6684L53.8267 37.423C57.9917 41.9791 58.0787 42.0947 57.5787 43.0697C57.2187 43.7737 56.8497 43.8133 50.5727 43.8133H43.9468L41.5688 41.3116Z" fill="#010101"/>
<path d="M56.7849 36.5292L51.5769 31.0894L49.7159 32.949C48.6919 33.9726 47.1769 35.4224 46.3509 36.1731L44.8479 37.5366H36.7339C31.2869 37.5366 28.3219 37.3935 27.7119 37.1034C26.6999 36.6225 26.3579 35.6689 26.5289 33.8113C26.7119 31.83 27.4669 31.6403 35.2099 31.6342L42.0089 31.6281L47.4239 26.1823C53.0689 20.5042 65.2009 8.39309 69.3549 4.28741C73.2919 0.398843 74.8319 -0.102319 76.5809 1.94189C78.1979 3.8319 77.7979 4.72872 73.2229 9.4644C70.9389 11.8292 67.4929 15.2988 65.5649 17.1746L62.0599 20.5853L67.2449 26.0423C70.3059 29.2644 72.4289 31.7894 72.4299 32.2094C72.4319 33.1509 63.6589 41.9415 62.7039 41.9557C62.2509 41.9628 60.0829 39.9724 56.7849 36.5292Z" fill="#010101"/>
<path d="M13.418 33.8245C10.808 32.7887 9.39198 32.5523 5.78298 32.5523C2.05498 32.5523 0.206984 33.3477 0.0169846 35.0338C-0.0730153 35.8383 0.165984 36.1579 1.43098 36.9198C3.18598 37.9769 5.65098 38.7327 7.93998 39.1832C9.43898 39.4764 12.973 39.6062 14.686 39.2329C16.227 38.8971 16.918 38.2721 16.918 37.218C16.919 35.887 15.744 34.7457 13.418 33.8245ZM15.714 37.847C14.81 38.7926 10.575 39.1365 7.51198 38.3472C4.90898 37.6776 1.76098 36.4511 1.05698 35.5664C0.474984 34.8339 0.833984 34.6594 3.51698 34.3734C7.01898 33.998 12.163 34.9993 15.222 36.6519C16.226 37.1937 16.26 37.2759 15.714 37.847Z" fill="#010101"/>
<path d="M29.4601 30.8124C29.5251 30.6328 30.9911 29.2207 32.4191 27.9799L35.0141 25.7227H40.7171H46.42L43.9651 28.3066L41.5091 30.8905H35.5481C32.2321 30.8905 29.3951 30.994 29.4601 30.8124Z" fill="#010101"/>
<path d="M38.0831 18.7045C38.0831 15.5697 35.5971 13.0283 32.5281 13.0283C29.4611 13.0283 26.9741 15.5697 26.9741 18.7045C26.9741 21.8383 29.4601 24.3796 32.5281 24.3796C35.5961 24.3796 38.0831 21.8383 38.0831 18.7045Z" fill="#010101"/>
<path d="M53.5 15.2907C53.5 11.9986 50.889 9.33051 47.667 9.33051C44.446 9.33051 41.835 11.9986 41.835 15.2907C41.835 18.5817 44.446 21.2498 47.667 21.2498C50.889 21.2498 53.5 18.5817 53.5 15.2907Z" fill="#010101"/>
</svg>
