<svg width="72" height="73" viewBox="0 0 72 73" fill="none" xmlns="http://www.w3.org/2000/svg">
<path d="M12.4615 0.691711C11.6972 0.691711 11.0769 1.31123 11.0769 2.07456V6.22311H6.92308C6.15877 6.22311 5.53846 6.84263 5.53846 7.60597V69.8343H1.38462C0.620308 69.8343 0 70.4538 0 71.2171C0 71.9804 0.620308 72.6 1.38462 72.6H6.92308H23.5385H40.1538H54H70.6154C71.3797 72.6 72 71.9804 72 71.2171C72 70.4538 71.3797 69.8343 70.6154 69.8343H55.3846V20.0516H58.1538V35.263C58.1538 36.0263 58.7742 36.6458 59.5385 36.6458H70.6154C71.3797 36.6458 72 36.0263 72 35.263V10.3717C72 9.60833 71.3797 8.98882 70.6154 8.98882H59.5385C58.7742 8.98882 58.1538 9.60833 58.1538 10.3717V11.7545H55.3846V7.60597C55.3846 6.84263 54.7643 6.22311 54 6.22311H49.8462V2.07456C49.8462 1.31123 49.2258 0.691711 48.4615 0.691711H12.4615ZM13.8462 3.45741H47.0769V6.22311H13.8462V3.45741ZM8.30769 8.98882H12.4615H48.4615H52.6154V13.1374V18.6688V69.8343H41.5385V56.0057H42.9231C43.6874 56.0057 44.3077 55.3862 44.3077 54.6229C44.3077 53.8596 43.6874 53.24 42.9231 53.24H40.1538H23.5385H20.7692C20.0049 53.24 19.3846 53.8596 19.3846 54.6229C19.3846 55.3862 20.0049 56.0057 20.7692 56.0057H22.1538V69.8343H8.30769V8.98882ZM12.4615 11.7545C11.6972 11.7545 11.0769 12.374 11.0769 13.1374V21.4345C11.0769 22.1978 11.6972 22.8173 12.4615 22.8173H20.7692C21.5335 22.8173 22.1538 22.1978 22.1538 21.4345V13.1374C22.1538 12.374 21.5335 11.7545 20.7692 11.7545H12.4615ZM26.3077 11.7545C25.5434 11.7545 24.9231 12.374 24.9231 13.1374V21.4345C24.9231 22.1978 25.5434 22.8173 26.3077 22.8173H34.6154C35.3797 22.8173 36 22.1978 36 21.4345V13.1374C36 12.374 35.3797 11.7545 34.6154 11.7545H26.3077ZM40.1538 11.7545C39.3895 11.7545 38.7692 12.374 38.7692 13.1374V21.4345C38.7692 22.1978 39.3895 22.8173 40.1538 22.8173H48.4615C49.2258 22.8173 49.8462 22.1978 49.8462 21.4345V13.1374C49.8462 12.374 49.2258 11.7545 48.4615 11.7545H40.1538ZM60.9231 11.7545H69.2308V33.8801H60.9231V18.6688V13.1374V11.7545ZM13.8462 14.5202H19.3846V20.0516H13.8462V14.5202ZM27.6923 14.5202H33.2308V20.0516H27.6923V14.5202ZM41.5385 14.5202H47.0769V20.0516H41.5385V14.5202ZM55.3846 14.5202H58.1538V17.2859H55.3846V14.5202ZM65.0769 14.5202C64.3126 14.5202 63.6923 15.1397 63.6923 15.9031V29.7316C63.6923 30.4949 64.3126 31.1144 65.0769 31.1144C65.8412 31.1144 66.4615 30.4949 66.4615 29.7316V15.9031C66.4615 15.1397 65.8412 14.5202 65.0769 14.5202ZM12.4615 25.583C11.6972 25.583 11.0769 26.2025 11.0769 26.9659V35.263C11.0769 36.0263 11.6972 36.6458 12.4615 36.6458H20.7692C21.5335 36.6458 22.1538 36.0263 22.1538 35.263V26.9659C22.1538 26.2025 21.5335 25.583 20.7692 25.583H12.4615ZM26.3077 25.583C25.5434 25.583 24.9231 26.2025 24.9231 26.9659V35.263C24.9231 36.0263 25.5434 36.6458 26.3077 36.6458H34.6154C35.3797 36.6458 36 36.0263 36 35.263V26.9659C36 26.2025 35.3797 25.583 34.6154 25.583H26.3077ZM40.1538 25.583C39.3895 25.583 38.7692 26.2025 38.7692 26.9659V35.263C38.7692 36.0263 39.3895 36.6458 40.1538 36.6458H48.4615C49.2258 36.6458 49.8462 36.0263 49.8462 35.263V26.9659C49.8462 26.2025 49.2258 25.583 48.4615 25.583H40.1538ZM13.8462 28.3487H19.3846V33.8801H13.8462V28.3487ZM27.6923 28.3487H33.2308V33.8801H27.6923V28.3487ZM41.5385 28.3487H47.0769V33.8801H41.5385V28.3487ZM12.4615 39.4115C11.6972 39.4115 11.0769 40.0311 11.0769 40.7944V49.0915C11.0769 49.8548 11.6972 50.4743 12.4615 50.4743H20.7692C21.5335 50.4743 22.1538 49.8548 22.1538 49.0915V40.7944C22.1538 40.0311 21.5335 39.4115 20.7692 39.4115H12.4615ZM26.3077 39.4115C25.5434 39.4115 24.9231 40.0311 24.9231 40.7944V49.0915C24.9231 49.8548 25.5434 50.4743 26.3077 50.4743H34.6154C35.3797 50.4743 36 49.8548 36 49.0915V40.7944C36 40.0311 35.3797 39.4115 34.6154 39.4115H26.3077ZM40.1538 39.4115C39.3895 39.4115 38.7692 40.0311 38.7692 40.7944V49.0915C38.7692 49.8548 39.3895 50.4743 40.1538 50.4743H48.4615C49.2258 50.4743 49.8462 49.8548 49.8462 49.0915V40.7944C49.8462 40.0311 49.2258 39.4115 48.4615 39.4115H40.1538ZM13.8462 42.1772H19.3846V47.7086H13.8462V42.1772ZM27.6923 42.1772H33.2308V47.7086H27.6923V42.1772ZM41.5385 42.1772H47.0769V47.7086H41.5385V42.1772ZM24.9231 56.0057H30.4615V69.8343H24.9231V56.0057ZM33.2308 56.0057H38.7692V69.8343H33.2308V56.0057Z" fill="black"/>
</svg>
