<svg width="33" height="22" viewBox="0 0 33 22" fill="none" xmlns="http://www.w3.org/2000/svg">
<path d="M2.25 0C1.01651 0 0 1.0282 0 2.27586V19.7241C0 20.9718 1.01651 22 2.25 22H30.75C31.9835 22 33 20.9718 33 19.7241V2.27586C33 1.0282 31.9835 0 30.75 0H2.25ZM2.67188 1.51724H30.3281L17.1797 13.4181C16.8605 13.7071 16.1395 13.7071 15.8203 13.4181L2.67188 1.51724ZM1.5 2.48922L10.8281 10.9408L1.5 19.4871V2.48922ZM31.5 2.48922V19.4871L22.1719 10.9408L31.5 2.48922ZM11.9531 11.9601L14.8125 14.5442C15.7663 15.4078 17.2337 15.4078 18.1875 14.5442L21.0469 11.9601L30.3516 20.4828H2.64844L11.9531 11.9601Z" fill="#BFBDC1"/>
</svg>
