<svg width="80" height="41" viewBox="0 0 80 41" fill="none" xmlns="http://www.w3.org/2000/svg">
<path d="M40 0.671326C38.54 0.671326 37.3765 1.68222 37.1708 3.12973L36.9252 4.86178H34.2857C33.4971 4.86178 32.8571 5.50258 32.8571 6.29213C32.8571 7.08168 33.4971 7.72247 34.2857 7.72247H36.5123L35.7813 12.8684C34.5441 13.3518 33.3948 14.0188 32.3605 14.8742H24.2857C23.4971 14.8742 22.8571 15.515 22.8571 16.3045C22.8571 17.0941 23.4971 17.7349 24.2857 17.7349H29.7824C28.6452 19.4055 27.7937 21.3308 27.4051 23.4562H3.26451C1.46451 23.4534 0 24.9226 0 26.7248C0 29.677 2.2108 32.1264 5.14509 32.4182L13.5212 33.2563C13.1298 33.9744 12.8571 34.7617 12.8571 35.6142C12.8571 38.3747 15.1 40.6204 17.8571 40.6204C20.6143 40.6204 22.8571 38.3747 22.8571 35.6142C22.8571 35.1164 22.7683 34.6334 22.6283 34.1671L29.7712 34.8822C32.1198 38.3437 35.8114 40.6204 40 40.6204C44.1886 40.6204 47.8802 38.3465 50.2288 34.8822L57.3661 34.1671C57.2232 34.6334 57.1429 35.1193 57.1429 35.6142C57.1429 38.3747 59.3857 40.6204 62.1429 40.6204C64.9 40.6204 67.1429 38.3747 67.1429 35.6142C67.1429 34.7531 66.8674 33.9686 66.4788 33.2563L74.8549 32.4182C77.7892 32.1236 80 29.6742 80 26.7248C80 24.9226 78.5355 23.4562 76.7355 23.4562H52.5949C52.2063 21.3308 51.3548 19.4055 50.2176 17.7349H55.7143C56.5029 17.7349 57.1429 17.0941 57.1429 16.3045C57.1429 15.515 56.5029 14.8742 55.7143 14.8742H47.6339C46.6025 14.0188 45.4559 13.3518 44.2188 12.8684L43.4821 7.72247H45.7143C46.5029 7.72247 47.1429 7.08168 47.1429 6.29213C47.1429 5.50258 46.5029 4.86178 45.7143 4.86178H43.0748L42.8292 3.12973C42.6235 1.68508 41.46 0.671326 40 0.671326ZM40 3.53201L41.2109 12.0135H38.7891L40 3.53201ZM40 14.8742C45.1171 14.8742 49.3028 19.3141 49.8828 24.9983C49.8828 25.0098 49.8744 25.0148 49.8772 25.0263L49.9107 25.2777C49.9393 25.6238 50 25.9622 50 26.3169C50 27.2295 49.8904 28.1314 49.6875 29.0268C49.6732 29.0983 49.6433 29.1676 49.6261 29.2391C49.4118 30.1087 49.1222 30.9655 48.7165 31.8036C48.7137 31.8122 48.7138 31.8203 48.7109 31.826C47.0024 35.3446 43.7571 37.7597 40 37.7597C36.2429 37.7597 32.9976 35.3418 31.2891 31.826C31.2862 31.8174 31.2863 31.8094 31.2835 31.8036C30.8778 30.9655 30.5882 30.1087 30.3739 29.2391C30.3567 29.1676 30.3268 29.0983 30.3125 29.0268C30.1096 28.1342 30 27.2295 30 26.3169C30 25.9622 30.0607 25.6267 30.0893 25.2777L30.1228 25.0263C30.1228 25.0148 30.1172 25.0098 30.1172 24.9983C30.6972 19.317 34.8829 14.8742 40 14.8742ZM37.7734 17.7349C36.5449 17.7349 35.45 18.5204 35.0614 19.6904L34.1127 22.5511C33.4956 24.4048 34.8733 26.3169 36.8248 26.3169H43.1808C45.1322 26.3169 46.51 24.402 45.8929 22.5511L44.9386 19.6904C44.55 18.5233 43.458 17.7349 42.2266 17.7349H37.7734ZM3.26451 26.3169H27.1429C27.1429 28.2765 27.5045 30.1406 28.1473 31.8427L5.42969 29.5687C3.96397 29.42 2.85714 28.2009 2.85714 26.7248C2.85714 26.5017 3.03594 26.3169 3.26451 26.3169ZM52.8571 26.3169H76.7355C76.9612 26.3169 77.1429 26.5017 77.1429 26.7248C77.1429 28.2009 76.036 29.42 74.5703 29.5687L51.8527 31.8427C52.4955 30.1406 52.8571 28.2736 52.8571 26.3169ZM40 30.608C39.2422 30.608 38.5155 30.9094 37.9797 31.4458C37.4439 31.9823 37.1429 32.7099 37.1429 33.4686C37.1429 34.2273 37.4439 34.955 37.9797 35.4915C38.5155 36.0279 39.2422 36.3293 40 36.3293C40.7578 36.3293 41.4845 36.0279 42.0203 35.4915C42.5561 34.955 42.8571 34.2273 42.8571 33.4686C42.8571 32.7099 42.5561 31.9823 42.0203 31.4458C41.4845 30.9094 40.7578 30.608 40 30.608ZM17.1317 33.6139L18.9621 33.7983C19.5963 34.1874 20 34.8675 20 35.6142C20 36.7785 19.0171 37.7597 17.8571 37.7597C16.6971 37.7597 15.7143 36.7785 15.7143 35.6142C15.7143 34.7102 16.2946 33.92 17.1317 33.6139ZM62.8516 33.6139C63.6858 33.92 64.2857 34.713 64.2857 35.6142C64.2857 36.7785 63.3029 37.7597 62.1429 37.7597C60.9829 37.7597 60 36.7785 60 35.6142C60 34.8704 60.4067 34.1874 61.0324 33.7983L62.8516 33.6139Z" fill="black"/>
</svg>
