<svg width="524" height="186" viewBox="0 0 524 186" fill="none" xmlns="http://www.w3.org/2000/svg">
<path d="M372.235 182.208H395.928V185.671H372.235V182.208Z" fill="black"/>
<path d="M378.94 70.1336L378.916 69.9652L375.958 180.837H381.302L382.137 69.7969L378.94 70.1336Z" fill="black"/>
<path d="M392.206 180.837L389.247 69.9654L389.199 70.254L383.497 69.7729L383.712 180.837H384.07H392.206Z" fill="black"/>
<path d="M388.985 69.364L384.237 60.1287L383.545 68.4501L388.985 69.364Z" fill="black"/>
<path d="M383.593 60.7299L379.179 69.316L382.233 68.4983L383.593 60.7299Z" fill="black"/>
<path d="M370.613 152.382V150.121H371.281V149.207H343.581C344.392 149.207 344.416 147.98 344.416 147.98V145.142C344.416 142.906 342.173 142.882 342.173 142.882H333.727C331.437 142.882 331.508 145.263 331.508 145.263V147.98C331.508 148.63 332.009 149.207 332.009 149.207H318.458L320.247 146.008C321.321 145.431 321.011 144.325 321.011 144.325H318.529V141.174H319.293V140.26H299.705V125.036C304.047 119.816 294.217 114.645 294.217 114.645V108.488C297.963 105.41 292.619 101.73 292.619 101.73C293.525 98.7235 289.636 96.8956 289.636 96.8956C290.543 81.6711 274.08 74.9608 274.08 74.9608V73.3494L271.647 71.9544V70.0543L270.263 68.8277V61.7566L270.979 61.2516C273.007 57.0907 267.28 54.6856 267.28 54.6856L267.591 52.3766L268.426 51.5589V50.6931L267.28 50.2361L267.066 47.5183C270.573 44.2954 266.135 40.8561 266.135 40.8561C266.135 40.8561 261.697 44.2954 265.205 47.5183L264.99 50.2361L263.845 50.6931V51.5589L264.68 52.3766L264.99 54.6856C264.99 54.6856 259.24 57.0907 261.268 61.2516L261.984 61.7566V68.8277L260.6 70.0543V71.9544L258.166 73.3494V74.9367C258.166 74.9367 241.704 81.647 242.61 96.8715C242.61 96.8715 238.721 98.7235 239.628 101.706C239.628 101.706 234.284 105.386 238.03 108.464V114.621C238.03 114.621 228.2 119.768 232.542 125.012V140.236H212.954V141.15H213.717V144.301H211.236C211.236 144.301 210.926 145.407 212 145.984L213.789 149.183H200.213C200.213 149.183 200.714 148.606 200.714 147.956V145.239C200.714 145.239 200.786 142.858 198.495 142.858H190.073C190.073 142.858 187.83 142.906 187.83 145.118V147.956C187.83 147.956 187.878 149.183 188.666 149.183H160.942V150.097H161.61V152.358H159.963V154.33C159.963 154.33 161.252 154.258 161.252 155.1V185.621H266.087H370.947V155.1C370.947 154.258 372.235 154.33 372.235 154.33V152.358H370.613V152.382ZM183.703 150.265H184.705V153.103H183.703V150.265ZM182.104 150.265H183.106V153.103H182.104V150.265ZM174.279 150.265H175.281V153.103H174.279V150.265ZM172.728 150.265H173.73V153.103H172.728V150.265ZM165.88 153.103H164.878V150.265H165.88V153.103ZM167.431 153.103H166.429V150.265H167.431V153.103ZM169.006 153.103H168.004V150.265H169.006V153.103ZM170.581 153.103H169.578V150.265H170.581V153.103ZM172.155 153.103H171.153V150.265H172.155V153.103ZM175.901 178.67H172.966V172.176C172.966 171.358 173.611 170.709 174.422 170.709C175.233 170.709 175.877 171.358 175.877 172.176V178.67H175.901ZM174.446 164.672C173.348 164.672 172.465 163.782 172.465 162.676C172.465 161.569 173.348 160.68 174.446 160.68C175.543 160.68 176.426 161.569 176.426 162.676C176.426 163.782 175.543 164.672 174.446 164.672ZM176.855 153.103H175.853V150.265H176.855V153.103ZM178.43 153.103H177.428V150.265H178.43V153.103ZM179.981 153.103H178.979V150.265H179.981V153.103ZM180.554 150.265H181.556V153.103H180.554V150.265ZM184.705 178.67H181.77V172.176C181.77 171.358 182.415 170.709 183.226 170.709C184.037 170.709 184.681 171.358 184.681 172.176V178.67H184.705ZM183.226 164.672C182.128 164.672 181.245 163.782 181.245 162.676C181.245 161.569 182.128 160.68 183.226 160.68C184.323 160.68 185.206 161.569 185.206 162.676C185.206 163.782 184.323 164.672 183.226 164.672ZM186.256 153.103H185.254V150.265H186.256V153.103ZM187.83 153.103H186.828V150.265H187.83V153.103ZM209.113 150.265H210.115V153.103H209.113V150.265ZM201.287 150.265H202.289V153.103H201.287V150.265ZM191.791 144.878H193.676V147.716H191.791V144.878ZM188.833 144.878H190.717V147.716H188.833V144.878ZM193.485 178.67H190.55V172.176C190.55 171.358 191.195 170.709 192.006 170.709C192.817 170.709 193.461 171.358 193.461 172.176V178.67H193.485ZM192.03 164.672C190.932 164.672 190.049 163.782 190.049 162.676C190.049 161.569 190.932 160.68 192.03 160.68C193.127 160.68 194.01 161.569 194.01 162.676C194.01 163.782 193.127 164.672 192.03 164.672ZM196.658 147.74H194.773V144.902H196.658V147.74ZM197.803 144.878H199.688V147.716H197.803V144.878ZM202.265 178.67H199.33V172.176C199.33 171.358 199.975 170.709 200.786 170.709C201.597 170.709 202.241 171.358 202.241 172.176V178.67H202.265ZM200.81 164.672C199.712 164.672 198.829 163.782 198.829 162.676C198.829 161.569 199.712 160.68 200.81 160.68C201.907 160.68 202.79 161.569 202.79 162.676C202.79 163.782 201.907 164.672 200.81 164.672ZM203.816 153.103H202.814V150.265H203.816V153.103ZM205.391 153.103H204.389V150.265H205.391V153.103ZM206.989 153.103H205.987V150.265H206.989V153.103ZM207.562 150.265H208.564V153.103H207.562V150.265ZM211.069 178.67H208.134V172.176C208.134 171.358 208.779 170.709 209.59 170.709C210.401 170.709 211.045 171.358 211.045 172.176V178.67H211.069ZM209.59 164.672C208.492 164.672 207.609 163.782 207.609 162.676C207.609 161.569 208.492 160.68 209.59 160.68C210.687 160.68 211.57 161.569 211.57 162.676C211.57 163.782 210.687 164.672 209.59 164.672ZM211.665 153.103H210.663V150.265H211.665V153.103ZM213.24 153.103H212.238V150.265H213.24V153.103ZM223.905 140.958H224.907V143.82H223.905V140.958ZM217.081 143.82H216.079V140.982H217.081V143.82ZM218.632 143.82H217.63V140.982H218.632V143.82ZM220.207 143.82H219.205V140.982H220.207V143.82ZM221.782 143.82H220.78V140.982H221.782V143.82ZM222.354 140.958H223.356V143.82H222.354V140.958ZM225.981 170.709H222.831V163.277H225.981V170.709ZM224.406 156.807C223.309 156.807 222.426 155.917 222.426 154.811C222.426 153.705 223.309 152.815 224.406 152.815C225.504 152.815 226.386 153.705 226.386 154.811C226.386 155.917 225.504 156.807 224.406 156.807ZM226.458 143.82H225.456V140.982H226.458V143.82ZM228.056 143.82H227.054V140.982H228.056V143.82ZM229.607 143.82H228.605V140.982H229.607V143.82ZM231.182 143.82H230.18V140.982H231.182V143.82ZM239.556 135.185C239.556 135.666 239.151 136.075 238.674 136.075H235.858C235.381 136.075 234.976 135.666 234.976 135.185V121.26C234.976 120.778 235.381 120.37 235.858 120.37H238.674C239.151 120.37 239.556 120.778 239.556 121.26V135.185ZM262.509 61.7326L263.034 61.5402V67.9138H262.509V61.7326ZM263.702 83.499C264.155 83.499 264.513 83.8598 264.513 84.3167V86.4814C264.513 86.9383 264.155 87.2991 263.702 87.2991C263.248 87.2991 262.89 86.9383 262.89 86.4814V84.3167C262.89 83.8598 263.248 83.499 263.702 83.499ZM262.366 103.101C262.366 102.5 262.843 102.018 263.439 102.018C264.036 102.018 264.513 102.5 264.513 103.101V108.897C264.513 109.498 264.036 109.979 263.439 109.979C262.843 109.979 262.366 109.498 262.366 108.897V103.101ZM261.029 139.538V142.377H260.027V139.538H261.029ZM262.509 154.811C262.509 155.917 261.626 156.807 260.528 156.807C259.431 156.807 258.548 155.917 258.548 154.811C258.548 153.705 259.431 152.815 260.528 152.815C261.626 152.815 262.509 153.705 262.509 154.811ZM258.858 84.9421C258.858 84.4851 259.216 84.1243 259.669 84.1243C260.123 84.1243 260.481 84.4851 260.481 84.9421V87.1067C260.481 87.5637 260.123 87.9244 259.669 87.9244C259.216 87.9244 258.858 87.5637 258.858 87.1067V84.9421ZM257.117 103.101C257.117 102.5 257.594 102.018 258.19 102.018C258.787 102.018 259.264 102.5 259.264 103.101V108.897C259.264 109.498 258.787 109.979 258.19 109.979C257.594 109.979 257.117 109.498 257.117 108.897V103.101ZM254.85 85.5434C254.85 85.0864 255.208 84.7256 255.661 84.7256C256.114 84.7256 256.472 85.0864 256.472 85.5434V87.708C256.472 88.1649 256.114 88.5257 255.661 88.5257C255.208 88.5257 254.85 88.1649 254.85 87.708V85.5434ZM250.842 86.1687C250.842 85.7117 251.2 85.3509 251.653 85.3509C252.106 85.3509 252.464 85.7117 252.464 86.1687V88.3333C252.464 88.7903 252.106 89.1511 251.653 89.1511C251.2 89.1511 250.842 88.7903 250.842 88.3333V86.1687ZM246.81 86.77C246.81 86.313 247.167 85.9522 247.621 85.9522C248.074 85.9522 248.432 86.313 248.432 86.77V88.9346C248.432 89.3916 248.074 89.7523 247.621 89.7523C247.167 89.7523 246.81 89.3916 246.81 88.9346V86.77ZM246.643 104.351C246.643 103.75 247.12 103.269 247.716 103.269C248.313 103.269 248.79 103.75 248.79 104.351V110.148C248.79 110.749 248.313 111.23 247.716 111.23C247.12 111.23 246.643 110.749 246.643 110.148V104.351ZM249.339 154.811C249.339 155.917 248.456 156.807 247.358 156.807C246.261 156.807 245.378 155.917 245.378 154.811C245.378 153.705 246.261 152.815 247.358 152.815C248.432 152.815 249.339 153.705 249.339 154.811ZM241.417 104.953C241.417 104.351 241.895 103.87 242.491 103.87C243.088 103.87 243.565 104.351 243.565 104.953V110.749C243.565 111.35 243.088 111.831 242.491 111.831C241.895 111.831 241.417 111.35 241.417 110.749V104.953ZM242.276 135.474C241.799 135.474 241.394 135.065 241.394 134.584V120.658C241.394 120.177 241.799 119.768 242.276 119.768H245.092C245.569 119.768 245.974 120.177 245.974 120.658V134.584C245.974 135.065 245.569 135.474 245.092 135.474H242.276ZM249.339 172.994H245.378V164.167C245.378 163.061 246.261 162.171 247.358 162.171C248.456 162.171 249.339 163.061 249.339 164.167V172.994ZM251.629 142.377H250.627V139.538H251.629V142.377ZM251.51 134.848H248.694C248.217 134.848 247.812 134.44 247.812 133.959V120.033C247.812 119.552 248.217 119.143 248.694 119.143H251.51C251.987 119.143 252.393 119.552 252.393 120.033V133.959C252.393 134.464 251.987 134.848 251.51 134.848ZM253.204 142.377H252.202V139.538H253.204V142.377ZM252.965 110.605C252.369 110.605 251.891 110.124 251.891 109.522V103.726C251.891 103.125 252.369 102.644 252.965 102.644C253.562 102.644 254.039 103.125 254.039 103.726V109.522C254.039 110.124 253.562 110.605 252.965 110.605ZM254.755 142.377H253.752V139.538H254.755V142.377ZM256.353 142.377H255.351V139.538H256.353V142.377ZM257.904 142.377H256.902V139.538H257.904V142.377ZM255.112 134.247C254.635 134.247 254.23 133.838 254.23 133.357V119.432C254.23 118.951 254.635 118.542 255.112 118.542H257.928C258.405 118.542 258.811 118.951 258.811 119.432V133.357C258.811 133.838 258.405 134.247 257.928 134.247H255.112ZM258.477 139.538H259.479V142.377H258.477V139.538ZM262.509 172.994H258.548V164.167C258.548 163.061 259.431 162.171 260.528 162.171C261.626 162.171 262.509 163.061 262.509 164.167V172.994ZM262.604 142.377H261.602V139.538H262.604V142.377ZM264.179 142.377H263.177V139.538H264.179V142.377ZM265.229 132.732C265.229 133.213 264.823 133.622 264.346 133.622H261.53C261.029 133.622 260.648 133.213 260.648 132.732V118.806C260.648 118.325 261.053 117.916 261.53 117.916H264.346C264.823 117.916 265.229 118.325 265.229 118.806V132.732ZM265.539 67.9378H263.487V61.2997L265.539 60.2895V67.9378ZM288.658 104.953C288.658 104.351 289.135 103.87 289.732 103.87C290.328 103.87 290.805 104.351 290.805 104.953V110.749C290.805 111.35 290.328 111.831 289.732 111.831C289.135 111.831 288.658 111.35 288.658 110.749V104.953ZM283.767 86.77C283.767 86.313 284.125 85.9522 284.578 85.9522C285.031 85.9522 285.389 86.313 285.389 86.77V88.9346C285.389 89.3916 285.031 89.7523 284.578 89.7523C284.125 89.7523 283.767 89.3916 283.767 88.9346V86.77ZM283.409 104.351C283.409 103.75 283.886 103.269 284.483 103.269C285.079 103.269 285.556 103.75 285.556 104.351V110.148C285.556 110.749 285.079 111.23 284.483 111.23C283.886 111.23 283.409 110.749 283.409 110.148V104.351ZM286.845 154.811C286.845 155.917 285.962 156.807 284.864 156.807C283.767 156.807 282.884 155.917 282.884 154.811C282.884 153.705 283.767 152.815 284.864 152.815C285.962 152.815 286.845 153.705 286.845 154.811ZM279.759 86.1687C279.759 85.7117 280.116 85.3509 280.57 85.3509C281.023 85.3509 281.381 85.7117 281.381 86.1687V88.3333C281.381 88.7903 281.023 89.1511 280.57 89.1511C280.116 89.1511 279.759 88.7903 279.759 88.3333V86.1687ZM275.75 85.5434C275.75 85.0864 276.108 84.7256 276.562 84.7256C277.015 84.7256 277.373 85.0864 277.373 85.5434V87.708C277.373 88.1649 277.015 88.5257 276.562 88.5257C276.108 88.5257 275.75 88.1649 275.75 87.708V85.5434ZM275.106 103.101V108.897C275.106 109.498 274.629 109.979 274.032 109.979C273.436 109.979 272.959 109.498 272.959 108.897V103.101C272.959 102.5 273.436 102.018 274.032 102.018C274.605 102.018 275.106 102.524 275.106 103.101ZM271.718 84.9421C271.718 84.4851 272.076 84.1243 272.529 84.1243C272.983 84.1243 273.341 84.4851 273.341 84.9421V87.1067C273.341 87.5637 272.983 87.9244 272.529 87.9244C272.076 87.9244 271.718 87.5637 271.718 87.1067V84.9421ZM272.171 139.538V142.377H271.169V139.538H272.171ZM273.675 154.811C273.675 155.917 272.792 156.807 271.694 156.807C270.597 156.807 269.714 155.917 269.714 154.811C269.714 153.705 270.597 152.815 271.694 152.815C272.792 152.815 273.675 153.705 273.675 154.811ZM269.189 61.5402L269.714 61.7326V67.9138H269.189V61.5402ZM269.857 103.101V108.897C269.857 109.498 269.38 109.979 268.784 109.979C268.187 109.979 267.71 109.498 267.71 108.897V103.101C267.71 102.5 268.187 102.018 268.784 102.018C269.38 102.018 269.857 102.524 269.857 103.101ZM269.332 84.3167V86.4814C269.332 86.9383 268.974 87.2991 268.521 87.2991C268.068 87.2991 267.71 86.9383 267.71 86.4814V84.3167C267.71 83.8598 268.068 83.499 268.521 83.499C268.974 83.499 269.332 83.8598 269.332 84.3167ZM266.66 60.2895L268.712 61.2997V67.9378H266.66V60.2895ZM266.994 132.732V118.806C266.994 118.325 267.4 117.916 267.877 117.916H270.692C271.169 117.916 271.575 118.325 271.575 118.806V132.732C271.575 133.213 271.169 133.622 270.692 133.622H267.877C267.4 133.622 266.994 133.213 266.994 132.732ZM269.022 142.377H268.02V139.538H269.022V142.377ZM269.595 139.538H270.597V142.377H269.595V139.538ZM273.675 172.994H269.714V164.167C269.714 163.061 270.597 162.171 271.694 162.171C272.792 162.171 273.675 163.061 273.675 164.167V172.994ZM273.746 142.377H272.744V139.538H273.746V142.377ZM275.297 142.377H274.319V139.538H275.321V142.377H275.297ZM276.872 142.377H275.87V139.538H276.872V142.377ZM274.295 134.247C273.818 134.247 273.412 133.838 273.412 133.357V119.432C273.412 118.951 273.818 118.542 274.295 118.542H277.11C277.587 118.542 277.993 118.951 277.993 119.432V133.357C277.993 133.838 277.587 134.247 277.11 134.247H274.295ZM278.446 142.377H277.444V139.538H278.446V142.377ZM278.184 109.522V103.726C278.184 103.125 278.661 102.644 279.258 102.644C279.854 102.644 280.331 103.125 280.331 103.726V109.522C280.331 110.124 279.854 110.605 279.258 110.605C278.661 110.605 278.184 110.124 278.184 109.522ZM280.021 142.377H279.019V139.538H280.021V142.377ZM279.83 133.959V120.033C279.83 119.552 280.236 119.143 280.713 119.143H283.528C284.005 119.143 284.411 119.552 284.411 120.033V133.959C284.411 134.44 284.005 134.848 283.528 134.848H280.713C280.212 134.848 279.83 134.464 279.83 133.959ZM281.572 142.377H280.57V139.538H281.572V142.377ZM286.845 172.994H282.884V164.167C282.884 163.061 283.767 162.171 284.864 162.171C285.962 162.171 286.845 163.061 286.845 164.167V172.994ZM290.829 134.584C290.829 135.065 290.424 135.474 289.946 135.474H287.131C286.654 135.474 286.248 135.065 286.248 134.584V120.658C286.248 120.177 286.654 119.768 287.131 119.768H289.946C290.424 119.768 290.829 120.177 290.829 120.658V134.584ZM297.223 135.185C297.223 135.666 296.818 136.075 296.34 136.075H293.525C293.048 136.075 292.642 135.666 292.642 135.185V121.26C292.642 120.778 293.048 120.37 293.525 120.37H296.34C296.818 120.37 297.223 120.778 297.223 121.26V135.185ZM307.316 140.958H308.318V143.82H307.316V140.958ZM302.019 143.82H301.041V140.982H302.043V143.82H302.019ZM303.594 143.82H302.592V140.982H303.594V143.82ZM305.144 143.82H304.142V140.982H305.144V143.82ZM305.741 140.958H306.743V143.82H305.741V140.958ZM309.391 170.709H306.242V163.277H309.391V170.709ZM307.817 156.807C306.719 156.807 305.836 155.917 305.836 154.811C305.836 153.705 306.719 152.815 307.817 152.815C308.914 152.815 309.797 153.705 309.797 154.811C309.797 155.917 308.914 156.807 307.817 156.807ZM309.868 143.82H308.866V140.982H309.868V143.82ZM311.419 143.82H310.417V140.982H311.419V143.82ZM313.018 143.82H312.016V140.982H313.018V143.82ZM314.569 143.82H313.567V140.982H314.569V143.82ZM316.119 143.82H315.117V140.982H316.119V143.82ZM338.547 144.878H340.432V147.716H338.547V144.878ZM329.934 150.265H330.936V153.103H329.934V150.265ZM322.132 150.265H323.134V153.103H322.132V150.265ZM319.961 153.103H318.959V150.265H319.961V153.103ZM320.557 150.265H321.559V153.103H320.557V150.265ZM324.088 178.67H321.154V172.176C321.154 171.358 321.798 170.709 322.609 170.709C323.42 170.709 324.064 171.358 324.064 172.176V178.67H324.088ZM322.609 164.672C321.512 164.672 320.629 163.782 320.629 162.676C320.629 161.569 321.512 160.68 322.609 160.68C323.707 160.68 324.589 161.569 324.589 162.676C324.589 163.782 323.707 164.672 322.609 164.672ZM324.661 153.103H323.659V150.265H324.661V153.103ZM326.236 153.103H325.234V150.265H326.236V153.103ZM327.81 153.103H326.808V150.265H327.81V153.103ZM329.385 153.103H328.383V150.265H329.385V153.103ZM332.868 178.67H329.934V172.176C329.934 171.358 330.578 170.709 331.389 170.709C332.2 170.709 332.845 171.358 332.845 172.176V178.67H332.868ZM331.413 164.672C330.316 164.672 329.433 163.782 329.433 162.676C329.433 161.569 330.316 160.68 331.413 160.68C332.511 160.68 333.393 161.569 333.393 162.676C333.393 163.782 332.511 164.672 331.413 164.672ZM334.419 147.74H332.534V144.902H334.419V147.74ZM337.449 147.74H335.564V144.902H337.449V147.74ZM341.648 178.67H338.738V172.176C338.738 171.358 339.382 170.709 340.193 170.709C341.004 170.709 341.648 171.358 341.648 172.176V178.67ZM340.193 164.672C339.096 164.672 338.213 163.782 338.213 162.676C338.213 161.569 339.096 160.68 340.193 160.68C341.291 160.68 342.173 161.569 342.173 162.676C342.173 163.782 341.291 164.672 340.193 164.672ZM343.39 147.74H341.505V144.902H343.39V147.74ZM358.517 150.265H359.519V153.103H358.517V150.265ZM356.942 150.265H357.944V153.103H356.942V150.265ZM349.116 150.265H350.118V153.103H349.116V150.265ZM347.518 150.265H348.52V153.103H347.518V150.265ZM345.394 153.103H344.392V150.265H345.394V153.103ZM346.945 153.103H345.943V150.265H346.945V153.103ZM350.452 178.67H347.518V172.176C347.518 171.358 348.162 170.709 348.973 170.709C349.784 170.709 350.428 171.358 350.428 172.176V178.67H350.452ZM348.973 164.672C347.876 164.672 346.993 163.782 346.993 162.676C346.993 161.569 347.876 160.68 348.973 160.68C350.071 160.68 350.953 161.569 350.953 162.676C350.953 163.782 350.071 164.672 348.973 164.672ZM351.669 153.103H350.667V150.265H351.669V153.103ZM353.22 153.103H352.218V150.265H353.22V153.103ZM354.771 153.103H353.769V150.265H354.771V153.103ZM355.343 150.265H356.345V153.103H355.343V150.265ZM359.232 178.67H356.298V172.176C356.298 171.358 356.942 170.709 357.753 170.709C358.564 170.709 359.209 171.358 359.209 172.176V178.67H359.232ZM357.777 164.672C356.68 164.672 355.797 163.782 355.797 162.676C355.797 161.569 356.68 160.68 357.777 160.68C358.875 160.68 359.757 161.569 359.757 162.676C359.757 163.782 358.875 164.672 357.777 164.672ZM361.046 153.103H360.044V150.265H361.046V153.103ZM362.62 153.103H361.618V150.265H362.62V153.103ZM364.195 153.103H363.193V150.265H364.195V153.103ZM365.77 153.103H364.768V150.265H365.77V153.103ZM367.321 153.103H366.318V150.265H367.321V153.103Z" fill="black"/>
<path d="M39.6665 127.145H137.346V128.735H39.6665V127.145Z" fill="black"/>
<path d="M39.6665 129.887H137.346V139.844H39.6665V129.887Z" fill="black"/>
<path d="M26.8296 140.998H150.158V142.491H26.8296V140.998Z" fill="black"/>
<path d="M26.8296 143.692H150.158V145.185H26.8296V143.692Z" fill="black"/>
<path d="M26.8296 174.741H150.158V176.234H26.8296V174.741Z" fill="black"/>
<path d="M22.4878 177.194H154.525V178.687H22.4878V177.194Z" fill="black"/>
<path d="M17 179.599H159.989V185.636H17V179.599Z" fill="black"/>
<path d="M33.6299 147.227C33.6299 146.77 33.2482 146.386 32.7949 146.386H28.1661C27.6889 146.386 27.3311 146.77 27.3311 147.227C27.3311 147.708 27.7128 148.069 28.1661 148.069H28.8103C28.5717 151.027 27.8798 161.369 28.023 173.779H30.4805H32.938C33.0812 161.369 32.3654 151.027 32.1507 148.069H32.7949C33.2721 148.069 33.6299 147.708 33.6299 147.227Z" fill="black"/>
<path d="M44.1997 147.227C44.1997 146.77 43.818 146.386 43.3647 146.386H38.736C38.2588 146.386 37.9009 146.77 37.9009 147.227C37.9009 147.708 38.2826 148.069 38.736 148.069H39.3802C39.1416 151.027 38.4496 161.369 38.5928 173.779H41.0503H43.5078C43.651 161.369 42.9352 151.027 42.7205 148.069H43.3647C43.818 148.069 44.1997 147.708 44.1997 147.227Z" fill="black"/>
<path d="M54.7451 147.227C54.7451 146.77 54.3634 146.386 53.91 146.386H49.2814C48.8042 146.386 48.4463 146.77 48.4463 147.227C48.4463 147.708 48.828 148.069 49.2814 148.069H49.9256C49.687 151.027 48.9951 161.369 49.1382 173.779H51.5957H54.0532C54.1964 161.369 53.4806 151.027 53.2658 148.069H53.91C54.3634 148.069 54.7451 147.708 54.7451 147.227Z" fill="black"/>
<path d="M65.2911 147.227C65.2911 146.77 64.9093 146.386 64.456 146.386H59.8273C59.3501 146.386 58.9922 146.77 58.9922 147.227C58.9922 147.708 59.3739 148.069 59.8273 148.069H60.4715C60.2329 151.027 59.541 161.369 59.6841 173.779H62.1416H64.5992C64.7423 161.369 64.0265 151.027 63.8118 148.069H64.456C64.9093 148.069 65.2911 147.708 65.2911 147.227Z" fill="black"/>
<path d="M75.8374 147.227C75.8374 146.77 75.4557 146.386 75.0023 146.386H70.3736C69.9203 146.386 69.5386 146.77 69.5386 147.227C69.5386 147.708 69.9203 148.069 70.3736 148.069H71.0178C70.7792 151.027 70.0873 161.369 70.2305 173.779H72.688H75.1455C75.2886 161.369 74.5729 151.027 74.3581 148.069H75.0023C75.4557 148.069 75.8374 147.708 75.8374 147.227Z" fill="black"/>
<path d="M86.3823 147.227C86.3823 146.77 86.0006 146.386 85.5473 146.386H80.9186C80.4652 146.386 80.0835 146.77 80.0835 147.227C80.0835 147.708 80.4652 148.069 80.9186 148.069H81.5628C81.3242 151.027 80.6323 161.369 80.7754 173.779H83.2329H85.6904C85.8336 161.369 85.1178 151.027 84.9031 148.069H85.5473C86.0006 148.069 86.3823 147.708 86.3823 147.227Z" fill="black"/>
<path d="M96.9288 147.227C96.9288 146.77 96.547 146.386 96.0937 146.386H91.465C90.9878 146.386 90.6299 146.77 90.6299 147.227C90.6299 147.708 91.0116 148.069 91.465 148.069H92.1092C91.8706 151.027 91.1786 161.369 91.3218 173.779H93.7793H96.2368C96.38 161.369 95.6642 151.027 95.4495 148.069H96.0937C96.547 148.069 96.9288 147.708 96.9288 147.227Z" fill="black"/>
<path d="M107.475 147.227C107.475 146.77 107.093 146.386 106.64 146.386H102.011C101.534 146.386 101.176 146.77 101.176 147.227C101.176 147.708 101.558 148.069 102.011 148.069H102.655C102.416 151.027 101.701 161.369 101.868 173.779H104.325H106.783C106.926 161.369 106.21 151.027 105.995 148.069H106.64C107.093 148.069 107.475 147.708 107.475 147.227Z" fill="black"/>
<path d="M118.02 147.227C118.02 146.77 117.638 146.386 117.185 146.386H112.556C112.103 146.386 111.721 146.77 111.721 147.227C111.721 147.708 112.103 148.069 112.556 148.069H113.2C112.962 151.027 112.27 161.369 112.413 173.779H114.871H117.328C117.471 161.369 116.755 151.027 116.541 148.069H117.185C117.638 148.069 118.02 147.708 118.02 147.227Z" fill="black"/>
<path d="M128.566 147.227C128.566 146.77 128.184 146.386 127.731 146.386H123.102C122.625 146.386 122.267 146.77 122.267 147.227C122.267 147.708 122.649 148.069 123.102 148.069H123.746C123.508 151.027 122.816 161.369 122.959 173.779H125.417H127.874C128.017 161.369 127.301 151.027 127.087 148.069H127.731C128.184 148.069 128.566 147.708 128.566 147.227Z" fill="black"/>
<path d="M139.112 147.227C139.112 146.77 138.731 146.386 138.277 146.386H133.649C133.195 146.386 132.813 146.77 132.813 147.227C132.813 147.708 133.195 148.069 133.649 148.069H134.293C134.054 151.027 133.362 161.369 133.505 173.779H135.963H138.42C138.564 161.369 137.848 151.027 137.633 148.069H138.277C138.731 148.069 139.112 147.708 139.112 147.227Z" fill="black"/>
<path d="M149.658 147.227C149.658 146.77 149.277 146.386 148.823 146.386H144.194C143.717 146.386 143.359 146.77 143.359 147.227C143.359 147.708 143.741 148.069 144.194 148.069H144.839C144.6 151.027 143.908 161.369 144.051 173.779H146.509H148.966C149.109 161.369 148.394 151.027 148.179 148.069H148.823C149.3 148.069 149.658 147.708 149.658 147.227Z" fill="black"/>
<path d="M522.519 150.69L523.02 149.345L520.992 148.36H495.651L491.547 144.228L487.562 148.384H482.026V141.537L484.055 142.306L485.272 139.879L459.74 129.117L434.209 139.879L435.426 142.306L437.454 141.537V148.384H431.918L427.933 144.228L423.829 148.36H398.465L396.46 149.345L396.962 150.69C396.962 150.69 398.56 150.762 398.56 152.035V182.738H397.152V185.621H456.805V175.603C456.805 174.185 457.951 173.032 459.358 173.032H460.122C461.53 173.032 462.675 174.185 462.675 175.603V185.621H522.328V182.738H520.92V152.035C520.944 150.762 522.519 150.69 522.519 150.69ZM407.293 179.711H402.712V169.284H407.293V179.711ZM407.293 165.537H402.712V158.017H407.293V165.537ZM416.981 179.711H412.4V169.284H416.981V179.711ZM416.981 165.537H412.4V158.017H416.981V165.537ZM426.669 179.711H422.087V169.284H426.669V179.711ZM426.669 165.537H422.087V158.017H426.669V165.537ZM436.332 179.711H431.751V169.284H436.332V179.711ZM436.332 165.537H431.751V158.017H436.332V165.537ZM440.389 147.807C439.816 147.807 439.363 147.399 439.363 146.918C439.363 146.414 439.816 146.029 440.389 146.029H444.207C444.779 146.029 445.233 146.438 445.233 146.918C445.233 147.423 444.779 147.807 444.207 147.807H440.389ZM443.992 148.528V182.041H440.604V148.528H443.992ZM445.137 184.708H439.482V182.642H445.137V184.708ZM445.137 168.66H449.838V179.999H445.137V168.66ZM447.38 162.87C446.306 162.87 445.423 161.981 445.423 160.9C445.423 159.819 446.306 158.93 447.38 158.93C448.454 158.93 449.337 159.819 449.337 160.9C449.337 162.005 448.454 162.87 447.38 162.87ZM449.026 168.083H445.925L447.476 167.194L449.026 168.083ZM455.493 184.708H449.838V182.642H455.493V184.708ZM450.959 182.017V148.528H454.348V182.041H450.959V182.017ZM454.562 147.807H450.744C450.172 147.807 449.718 147.399 449.718 146.918C449.718 146.414 450.172 146.029 450.744 146.029H454.562C455.135 146.029 455.588 146.438 455.588 146.918C455.588 147.423 455.135 147.807 454.562 147.807ZM459.74 162.87C458.666 162.87 457.784 161.981 457.784 160.9C457.784 159.819 458.666 158.93 459.74 158.93C460.814 158.93 461.697 159.819 461.697 160.9C461.697 162.005 460.838 162.87 459.74 162.87ZM464.918 147.807C464.345 147.807 463.892 147.399 463.892 146.918C463.892 146.414 464.345 146.029 464.918 146.029H468.736C469.308 146.029 469.762 146.438 469.762 146.918C469.762 147.423 469.308 147.807 468.736 147.807H464.918ZM468.545 148.528V182.041H465.157V148.528H468.545ZM469.666 184.708H464.011V182.642H469.666V184.708ZM469.666 168.66H474.367V179.999H469.666V168.66ZM472.124 162.87C471.05 162.87 470.167 161.981 470.167 160.9C470.167 159.819 471.05 158.93 472.124 158.93C473.198 158.93 474.081 159.819 474.081 160.9C474.081 162.005 473.198 162.87 472.124 162.87ZM473.556 168.083H470.454L472.005 167.194L473.556 168.083ZM480.022 184.708H474.367V182.642H480.022V184.708ZM475.488 182.017V148.528H478.877V182.041H475.488V182.017ZM479.115 147.807H475.298C474.725 147.807 474.272 147.399 474.272 146.918C474.272 146.414 474.725 146.029 475.298 146.029H479.115C479.688 146.029 480.141 146.438 480.141 146.918C480.118 147.423 479.664 147.807 479.115 147.807ZM439.22 140.023L459.74 131.855L480.261 140.023H439.22ZM487.753 179.711H483.172V169.284H487.753V179.711ZM487.753 165.537H483.172V158.017H487.753V165.537ZM497.417 179.711H492.836V169.284H497.417V179.711ZM497.417 165.537H492.836V158.017H497.417V165.537ZM507.104 179.711H502.523V169.284H507.104V179.711ZM507.104 165.537H502.523V158.017H507.104V165.537ZM516.768 179.711H512.187V169.284H516.768V179.711ZM516.768 165.537H512.187V158.017H516.768V165.537Z" fill="black"/>
<path fill-rule="evenodd" clip-rule="evenodd" d="M12.7331 31.7068L11.3119 31.062L25.1232 28.5546C24.9735 26.9751 25.3274 26.4452 27.7037 26.5297L19.3167 11.4264L23.2295 11.3072L34.6274 23.2063L36.5273 20.7479L38.5948 20.6544L37.2343 25.0313L40.4168 26.7967C49.7905 27.5215 59.0782 28.5149 68.3373 29.3267L74.0741 21.17L74.6238 15.0595L77.7886 15.1144L80.8601 21.2184L83.0667 30.809C89.1556 30.5559 109.653 32.071 111.801 36.0184L113.528 38.8343C125.702 42.0758 121.989 47.3501 111.274 47.9397C100.875 48.3222 90.4644 46.9637 80.0562 44.8758L54.1488 48.6568C55.8737 49.965 54.9551 54.4209 52.3392 54.0415C51.02 53.7378 39.3514 51.3508 39.3464 50.8194L28.6157 52.3866C30.1556 53.017 29.4967 56.5479 27.5786 56.2269C26.6775 56.0012 18.6908 54.195 18.6924 53.8365L4.33102 55.9345L0.376028 53.5882L37.4253 45.5052L53.2979 40.3468C43.975 38.7955 36.0025 35.9995 28.9669 30.9726L12.7369 31.7076L12.7331 31.7068ZM53.3658 49.5291C52.9612 49.111 53.5973 48.4942 54.0019 48.9122C55.4379 50.3936 54.8233 53.4236 52.7335 53.8233C52.1595 53.9311 51.9929 53.0579 52.5669 52.9501C53.9483 52.689 54.3188 50.5117 53.3666 49.5252L53.3658 49.5291ZM28.3456 53.138C28.07 52.8435 28.5186 52.4295 28.7904 52.7233C29.7548 53.7642 29.2948 55.8385 27.8494 56.0818C27.4512 56.1517 27.3502 55.5477 27.7476 55.4817C28.7004 55.3199 28.9863 53.8302 28.3456 53.138ZM41.9826 31.7792L43.0195 31.8747L43.0029 33.3187L41.9652 33.227L41.9826 31.7792ZM43.5644 31.9202L44.6022 32.0119L44.5848 33.4596L43.547 33.3679L43.5644 31.9202ZM45.1463 32.0611L46.1841 32.1528L46.1667 33.6006L45.1289 33.5089L45.1463 32.0611ZM46.7282 32.2021L47.7659 32.2938L47.7485 33.7416L46.7116 33.6461L46.7282 32.2021ZM48.31 32.3431L49.347 32.4386L49.3266 33.8817L48.2926 33.7908L48.31 32.3431ZM49.8919 32.484L50.9297 32.5757L50.9085 34.0227L49.8745 33.9318L49.8919 32.484ZM51.4738 32.625L52.5115 32.7167L52.4942 34.1644L51.4572 34.0689L51.4738 32.625ZM53.0556 32.766L54.0896 32.8568L54.0722 34.3046L53.0352 34.2091L53.0518 32.7651L53.0556 32.766ZM54.6375 32.9069L55.6706 33.0016L55.6533 34.4494L54.6163 34.3539L54.6337 32.9061L54.6375 32.9069ZM56.2194 33.0479L57.2525 33.1426L57.2359 34.5865L56.202 34.4957L56.2194 33.0479ZM57.8012 33.1888L58.8352 33.2797L58.8178 34.7275L57.7838 34.6366L57.8012 33.1888ZM62.4685 33.882L63.5063 33.9737L63.4889 35.4215L62.4519 35.326L62.4685 33.882ZM64.0504 34.023L65.0873 34.1185L65.0708 35.5624L64.033 35.4707L64.0504 34.023ZM65.6322 34.1639L66.67 34.2556L66.6526 35.7034L65.6149 35.6117L65.6322 34.1639ZM67.2141 34.3049L68.2519 34.3966L68.2345 35.8444L67.1967 35.7527L67.2141 34.3049ZM68.796 34.4459L69.8338 34.5375L69.8126 35.9845L68.7794 35.8898L68.796 34.4459ZM70.3779 34.5868L71.4148 34.6823L71.3936 36.1293L70.3605 36.0346L70.3779 34.5868ZM71.9597 34.7278L72.9929 34.8225L72.9763 36.2664L71.9385 36.1747L71.9559 34.727L71.9597 34.7278ZM73.5416 34.8687L74.5756 34.9596L74.5582 36.4074L73.5204 36.3157L73.5378 34.8679L73.5416 34.8687ZM75.1235 35.0097L76.1574 35.1006L76.14 36.5484L75.1061 36.4575L75.1235 35.0097ZM76.7053 35.1507L77.7385 35.2454L77.7211 36.6931L76.6879 36.5984L76.7053 35.1507ZM78.2872 35.2916L79.3203 35.3863L79.3038 36.8303L78.2698 36.7394L78.2872 35.2916ZM82.9545 35.9848L83.9922 36.0765L83.9748 37.5243L82.9371 37.4326L82.9545 35.9848ZM84.5363 36.1258L85.5741 36.2175L85.5567 37.6652L84.5198 37.5697L84.5363 36.1258ZM86.1182 36.2667L87.1552 36.3622L87.1378 37.81L86.1008 37.7145L86.1182 36.2667ZM87.7001 36.4077L88.737 36.5032L88.7166 37.9463L87.6827 37.8555L87.7001 36.4077ZM89.2819 36.5487L90.3197 36.6403L90.2985 38.0873L89.2645 37.9964L89.2819 36.5487ZM90.8638 36.6896L91.8978 36.7805L91.8804 38.2283L90.8464 38.1374L90.8638 36.6896ZM92.4457 36.8306L93.4788 36.9253L93.4614 38.373L92.4245 38.2775L92.4419 36.8298L92.4457 36.8306ZM94.0275 36.9715L95.0607 37.0662L95.0441 38.5102L94.0063 38.4185L94.0237 36.9707L94.0275 36.9715ZM95.6094 37.1125L96.6434 37.2034L96.626 38.6512L95.592 38.5603L95.6094 37.1125ZM97.1913 37.2535L98.2252 37.3443L98.2078 38.7921L97.1747 38.6974L97.1913 37.2535ZM98.7731 37.3944L99.8071 37.4853L99.7897 38.9331L98.7566 38.8384L98.7731 37.3944ZM105.318 37.7459C105.633 37.5066 107.537 37.4138 107.836 37.6017L107.919 41.0769C106.825 41.2841 105.541 41.3348 104.666 41.0032C104.693 39.8086 104.855 38.6909 105.318 37.7459ZM108.451 37.5587C109.555 36.8471 110.415 36.5776 111.361 36.4103C112.045 37.2713 112.571 38.1658 113.044 39.3203C111.661 40.0478 110.179 40.5344 108.665 40.8746L108.451 37.5587Z" fill="black"/>
</svg>
